<?xml version="1.0" encoding="utf-8"?>
<!-- Generator: Adobe Illustrator 16.0.0, SVG Export Plug-In . SVG Version: 6.00 Build 0)  -->
<!DOCTYPE svg PUBLIC "-//W3C//DTD SVG 1.1//EN" "http://www.w3.org/Graphics/SVG/1.1/DTD/svg11.dtd">
<svg version="1.1" id="Layer_1" xmlns="http://www.w3.org/2000/svg" xmlns:xlink="http://www.w3.org/1999/xlink" x="0px" y="0px"
	 width="500px" height="500px" viewBox="0 0 500 500" enable-background="new 0 0 500 500" xml:space="preserve">
<g id="Amazon">
	<path d="M243.154,388.987c-136.269-6.325-186.109-58.722-195.864-53.844c-17.793,8.898,73.253,74.132,191.963,85.057
		c95.117,8.755,201.716-47.796,191.963-61.256C421.629,345.715,380.228,395.349,243.154,388.987z"/>
	<path d="M468.769,332.021c-2.284-2.552-20.778-7.032-39.798-4.682c-26.044,3.219-39.172,13.673-37.749,16.68
		c1.468,3.095,17.944,0.264,32.481-0.878c11.574-0.909,21.404-0.701,25.167,4.097c3.028,3.866,1.717,14.11-0.586,22.825
		c-4.097,15.509-19.294,29.198-10.827,32.774c7.456,3.147,24.191-24.673,28.385-36.579
		C470.789,352.213,470.698,334.179,468.769,332.021z"/>
	<path d="M216.63,183.993c-43.988,16.256-64.385,42.294-64.385,77.798c0,35.506,18.728,73.033,72.961,73.033
		c54.233,0,76.084-33.625,76.084-33.625s17.946,22.629,24.579,29.263c6.634,6.634,10.339,4.878,15.217,0
		s31.799-26.727,33.944-28.873s7.804-5.462,0-15.217c-7.803-9.754-16.777-21.85-16.777-38.113c0-16.266,0.78-67.232,0-103.127
		S334.452,71,263.834,71c-70.621,0-93.119,38.942-103.396,67.109c-2.733,7.491,0.39,11.706,8.583,13.265
		c8.193,1.561,29.263,4.292,39.797,4.292c10.535,0,11.302-4.898,13.266-8.194c1.964-3.295,2.341-26.373,33.21-26.373
		s36.239,20.521,37.409,30.274c1.172,9.754-1.56,19.899-1.56,19.899S244.715,173.614,216.63,183.993z M292,237.211
		c0,14.047-10.231,51.795-41.98,51.795c-20.777,0-28.61-15.802-28.61-34.236c0-26.337,14.59-45.65,70.59-45.65
		C292,209.119,292,231.852,292,237.211z"/>
</g>
</svg>
