<?xml version="1.0" encoding="utf-8"?>
<!-- Generator: Adobe Illustrator 16.0.0, SVG Export Plug-In . SVG Version: 6.00 Build 0)  -->
<!DOCTYPE svg PUBLIC "-//W3C//DTD SVG 1.1//EN" "http://www.w3.org/Graphics/SVG/1.1/DTD/svg11.dtd">
<svg version="1.1" id="Layer_1" xmlns="http://www.w3.org/2000/svg" xmlns:xlink="http://www.w3.org/1999/xlink" x="0px" y="0px"
	 width="500px" height="500px" viewBox="0 0 500 500" enable-background="new 0 0 500 500" xml:space="preserve">
<path id="Deezer" d="M115.063,368.5H37.639v-23.459h77.424V368.5z M115.063,338.009H37.639v-23.476h77.424V338.009z
	 M115.063,307.509H37.639v-23.47h77.424V307.509z M115.063,276.994H37.639v-23.458h77.424V276.994z M115.063,246.486H37.639v-23.463
	h77.424V246.486z M201.892,368.5h-77.435v-23.459h77.435V368.5z M201.892,338.009h-77.435v-23.476h77.435V338.009z M201.892,307.509
	h-77.435v-23.47h77.435V307.509z M288.715,368.5h-77.43v-23.459h77.435L288.715,368.5L288.715,368.5z M288.715,338.009h-77.43
	v-23.476h77.435L288.715,338.009L288.715,338.009z M288.715,307.509h-77.43v-23.47h77.435L288.715,307.509L288.715,307.509z
	 M288.715,276.994h-77.43v-23.458h77.435L288.715,276.994L288.715,276.994z M288.715,246.486h-77.43v-23.463h77.435L288.715,246.486
	L288.715,246.486z M288.715,215.979h-77.43v-23.463h77.435L288.715,215.979L288.715,215.979z M288.715,185.483h-77.43v-23.47h77.435
	L288.715,185.483L288.715,185.483z M375.531,368.5h-77.428v-23.459h77.435L375.531,368.5L375.531,368.5z M375.531,338.009h-77.428
	v-23.476h77.435L375.531,338.009L375.531,338.009z M375.531,307.509h-77.428v-23.47h77.435L375.531,307.509L375.531,307.509z
	 M375.531,276.994h-77.428v-23.458h77.435L375.531,276.994L375.531,276.994z M375.531,246.486h-77.428v-23.463h77.435
	L375.531,246.486L375.531,246.486z M462.361,368.5h-77.437v-23.459h77.43V368.5H462.361z M462.361,338.009h-77.437v-23.476h77.43
	v23.476H462.361z M462.361,307.491h-77.437v-23.465h77.43v23.465H462.361z M462.361,276.994h-77.437V253.52h77.43v23.475H462.361z
	 M462.361,246.486h-77.437v-23.481h77.43v23.481H462.361z M462.361,215.973h-77.437v-23.458h77.43v23.458H462.361z M462.361,185.466
	h-77.437v-23.458h77.43v23.458H462.361z M384.925,154.964V131.5h77.43v23.464H384.925z"/>
</svg>
