<?xml version="1.0" encoding="utf-8"?>
<!-- Generator: Adobe Illustrator 16.0.0, SVG Export Plug-In . SVG Version: 6.00 Build 0)  -->
<!DOCTYPE svg PUBLIC "-//W3C//DTD SVG 1.1//EN" "http://www.w3.org/Graphics/SVG/1.1/DTD/svg11.dtd">
<svg version="1.1" id="Layer_1" xmlns="http://www.w3.org/2000/svg" xmlns:xlink="http://www.w3.org/1999/xlink" x="0px" y="0px"
	 width="500px" height="500px" viewBox="0 0 500 500" enable-background="new 0 0 500 500" xml:space="preserve">
<path id="Reddit" d="M463.489,233.435c0-26.232-21.718-47.498-48.508-47.498c-12.894,0-24.603,4.935-33.291,12.969
	c-29.361-20.679-67.914-34.495-110.771-37.894l22.021-69.435l64.664,14.187l0.006-0.03c2.152,18.147,17.581,32.223,36.308,32.223
	c20.198,0,36.573-16.374,36.573-36.574c0-20.199-16.375-36.573-36.573-36.573c-13.371,0-25.061,7.178-31.44,17.888l0.003-0.009
	l-74.089-16.726c-0.246-0.063-0.494-0.122-0.746-0.169l-0.12-0.026l-0.011,0.007c-0.606-0.104-1.226-0.169-1.861-0.169
	c-5.225,0-9.59,3.647-10.711,8.533c-0.008,0.027-0.015,0.05-0.025,0.08c-0.351,1.085-25.818,79.788-27.829,85.999
	c-49.983,0.588-95.25,15.287-128.602,38.857c-8.706-8.133-20.487-13.136-33.469-13.136c-26.791,0-48.508,21.266-48.508,47.498
	c0,18.672,11.007,34.817,27.009,42.579c-1.538,7.063-2.348,14.299-2.348,21.676c0,75.939,84.633,137.5,189.033,137.5
	c104.401,0,189.034-61.561,189.034-137.5c0-7.441-0.822-14.742-2.388-21.861C452.651,267.998,463.489,251.961,463.489,233.435z
	 M154.596,273.918c0-16.393,13.29-29.682,29.683-29.682c16.394,0,29.684,13.29,29.684,29.682c0,16.395-13.29,29.684-29.684,29.684
	C167.886,303.602,154.596,290.313,154.596,273.918z M321.7,362.191c0,0-22.397,22.709-72.091,22.709
	c-49.692,0-71.494-22.52-71.494-22.52l0.004-0.004c-2.242-2.137-3.646-5.145-3.646-8.486c0-6.477,5.251-11.727,11.728-11.727
	c2.074,0,4.019,0.541,5.708,1.488l0.002-0.004c0,0,0.013,0.01,0.015,0.014c1.05,0.588,1.995,1.336,2.814,2.207
	c6.958,5.088,26.464,17.166,54.869,17.166c19.506,0,42.89-9.033,56.184-18.045c0.578-0.498,1.204-0.938,1.873-1.314
	c0.013-0.01,0.026-0.018,0.039-0.027l0.002,0.004c1.69-0.945,3.635-1.488,5.709-1.488c6.477,0,11.727,5.25,11.727,11.727
	C325.143,357.133,323.827,360.068,321.7,362.191z M316.265,303.602c-16.394,0-29.683-13.289-29.683-29.684
	c0-16.393,13.289-29.682,29.683-29.682s29.683,13.29,29.683,29.682C345.947,290.313,332.658,303.602,316.265,303.602z"/>
</svg>
