<?xml version="1.0" encoding="utf-8"?>
<!-- Generator: Adobe Illustrator 16.0.0, SVG Export Plug-In . SVG Version: 6.00 Build 0)  -->
<!DOCTYPE svg PUBLIC "-//W3C//DTD SVG 1.1//EN" "http://www.w3.org/Graphics/SVG/1.1/DTD/svg11.dtd">
<svg version="1.1" id="Layer_1" xmlns="http://www.w3.org/2000/svg"  x="0px" y="0px"
	 width="500px" height="500px" viewBox="0 0 500 500" enable-background="new 0 0 500 500" xml:space="preserve">
<g>
	<path d="M250.389,58.752c51.178,0,99.292,19.93,135.479,56.118c36.188,36.188,56.117,84.302,56.117,135.479
		s-19.93,99.292-56.117,135.479s-84.302,56.117-135.479,56.117s-99.292-19.93-135.479-56.117
		c-36.188-36.188-56.117-84.302-56.117-135.479s19.929-99.292,56.117-135.479C151.097,78.682,199.211,58.752,250.389,58.752
		 M250.389,39.752c-116.31,0-210.597,94.288-210.597,210.597s94.287,210.597,210.597,210.597
		c116.31,0,210.597-94.287,210.597-210.597S366.698,39.752,250.389,39.752L250.389,39.752z"/>
</g>
<path d="M260.859,482.276c0,0-0.237-54.869,1.216-114.603c0.821-33.777,51.377-62.542,76.095-47.612
	c31.486,19.017,104.037,62.84,104.037,62.84l3.177,1.918c5.73-8.296,10.956-16.972,15.608-25.988l-3.924-2.112
	c0,0-47.876-26.812-99.149-57.488c-28.994-17.346-29.138-75.512-3.971-89.674c32.057-18.042,105.922-59.609,105.922-59.609
	l4.03-2.268c-4.49-9.321-9.588-18.294-15.214-26.889l-4.574,2.898c0,0-46.99,28.571-98.87,58.21
	C315.904,198.659,265,170.256,265,141.38c0-36.785,0-121.543,0-121.543V13.97c-5-0.306-9.75-0.48-14.756-0.48
	c-5.789,0-11.032,0.218-16.716,0.626l0.472,5.72c0,0,0,84.758,0,121.543c0,28.876-50.948,57.279-80.284,40.519
	c-51.881-29.639-98.82-58.21-98.82-58.21l-3.282-2.014c-5.562,8.58-10.637,17.539-15.071,26.835l2.528,1.438
	c0,0,73.852,41.568,105.909,59.609c25.166,14.162,25.016,72.328-3.979,89.674c-51.272,30.677-99.151,57.488-99.151,57.488
	l-2.473,1.329c4.608,9.012,9.785,17.682,15.468,25.978l1.861-1.124c0,0,72.551-43.823,104.038-62.84
	c24.717-14.93,75.272,13.835,76.094,47.612c1.453,59.733,1.216,114.603,1.216,114.603l-0.098,4.61
	c4.117,0.213,8.262,0.322,12.433,0.322c3.543,0,7.065-0.093,10.57-0.246L260.859,482.276z"/>
</svg>
