<?xml version="1.0" encoding="utf-8"?>
<!-- Generator: Adobe Illustrator 16.0.0, SVG Export Plug-In . SVG Version: 6.00 Build 0)  -->
<!DOCTYPE svg PUBLIC "-//W3C//DTD SVG 1.1//EN" "http://www.w3.org/Graphics/SVG/1.1/DTD/svg11.dtd">
<svg version="1.1" id="Layer_1" xmlns="http://www.w3.org/2000/svg"  x="0px" y="0px"
	 width="500px" height="500px" viewBox="0 0 500 500" enable-background="new 0 0 500 500" xml:space="preserve">
<path id="Orchester" fill="none" stroke="#000000" stroke-width="20" stroke-miterlimit="10" d="M210.223,442.495
	c0,24.042,23.081,37.505,37.504,37.505s33.177-11.54,33.177-33.176c0-115.398-63.949-294.986-63.949-378.408
	c0-16.349,6.25-48.083,39.188-48.083c32.936,0,39.185,34.62,39.185,43.274c0,52.89-135.109,128.862-135.109,199.063
	c0,70.199,58.659,90.393,100.973,90.393s79.335-25.965,79.335-79.336c0-36.061-32.215-70.199-70.199-70.199
	c-37.985,0-50.005,27.405-50.005,50.004c0,22.6,17.79,45.843,40.56,45.843"/>
</svg>
