<?xml version="1.0" encoding="utf-8"?>
<!-- Generator: Adobe Illustrator 16.0.0, SVG Export Plug-In . SVG Version: 6.00 Build 0)  -->
<!DOCTYPE svg PUBLIC "-//W3C//DTD SVG 1.1//EN" "http://www.w3.org/Graphics/SVG/1.1/DTD/svg11.dtd">
<svg version="1.1" id="Layer_1" xmlns="http://www.w3.org/2000/svg"  x="0px" y="0px"
	 width="500px" height="500px" viewBox="0 0 500 500" enable-background="new 0 0 500 500" xml:space="preserve">
<path id="GitHub" d="M250,40.623c-117.913,0-213.5,95.587-213.5,213.5c0,96.164,63.583,177.47,150.999,204.195
	c0.505,0.065,4.108,0.42,6.468-3.12c2.536-3.804,2.033-11.41,2.033-11.41v-39.556c0,0-15.092,3.043-24.727,2.789
	c-9.636-0.254-24.535-2.662-35.184-11.664c-14.273-12.064-16.115-27.277-23.678-36.387c-11.791-14.199-19.889-13.058-20.649-19.144
	s17.085-7.016,30.942,3.296c16.355,12.172,17.042,34.321,47.939,36.918c13.3,1.117,25.6-5.223,25.6-5.223
	s5.072-22.313,14.201-28.398c-35.161-7.1-94.832-9.129-97.706-104.468c-1.177-39.049,22.652-56.629,22.652-56.629
	s-10.481-23.495,2.028-56.627c25.483-2.876,58.151,21.976,58.151,21.976s27.046-6.762,54.431-6.762s52.741,7.1,52.741,7.1
	s33.09-25.189,58.826-22.435c14.073,26.786,2.367,56.244,2.367,56.244s21.638,20.96,21.638,56.122s-9,99.735-97.238,105.145
	C302.109,357.196,303,377.188,303,383.949s0,59.839,0,59.839s-0.764,9.636,2.025,12.805c2.361,2.683,5.194,2.342,6.032,2.174
	c88.19-26.246,152.475-107.928,152.475-204.644C463.532,136.21,367.913,40.623,250,40.623z"/>
</svg>
