<?xml version="1.0" encoding="utf-8"?>
<!-- Generator: Adobe Illustrator 16.0.0, SVG Export Plug-In . SVG Version: 6.00 Build 0)  -->
<!DOCTYPE svg PUBLIC "-//W3C//DTD SVG 1.1//EN" "http://www.w3.org/Graphics/SVG/1.1/DTD/svg11.dtd">
<svg version="1.1" xmlns="http://www.w3.org/2000/svg" xmlns:xlink="http://www.w3.org/1999/xlink" x="0px" y="0px" width="500px"
	 height="500px" viewBox="0 0 500 500" enable-background="new 0 0 500 500" xml:space="preserve">
<g id="Layer_1">
	<circle fill="#FFFFFF" cx="246" cy="250" r="353.553"/>
</g>
<g id="Layer_2">
	<path id="YouTube" display="none" d="M453.795,149.077c-4.867-18.12-19.201-32.454-37.592-37.322
		c-33.264-8.654-166.323-8.654-166.323-8.654s-130.625-0.541-163.89,8.114c-18.391,4.868-35.97,19.742-40.837,37.862
		c-8.925,32.994-8.114,101.417-8.114,101.417s-0.811,68.423,8.114,101.417c4.868,18.118,22.717,32.994,40.837,37.861
		c33.264,8.925,163.89,8.113,163.89,8.113s130.625,0.542,163.889-8.113c18.391-4.867,35.428-19.743,40.296-37.861
		c8.926-32.724,8.926-101.417,8.926-101.417S462.721,182.071,453.795,149.077z M209,315.94V185.046l106.285,65.448L209,315.94z"/>
	<path id="Reddit" display="none" d="M464.157,212.003c0-26.232-21.718-47.498-48.508-47.498c-12.894,0-24.603,4.935-33.291,12.969
		c-29.361-20.679-67.914-34.495-110.771-37.894l22.021-69.435l64.664,14.187l0.006-0.03c2.152,18.147,17.581,32.223,36.308,32.223
		c20.198,0,36.573-16.374,36.573-36.574c0-20.199-16.375-36.573-36.573-36.573c-13.371,0-25.061,7.178-31.44,17.888l0.003-0.009
		l-74.089-16.726c-0.246-0.063-0.494-0.122-0.746-0.169l-0.12-0.026l-0.011,0.007c-0.606-0.104-1.226-0.169-1.861-0.169
		c-5.225,0-9.59,3.647-10.711,8.533c-0.008,0.027-0.015,0.05-0.025,0.08c-0.351,1.085-25.818,79.788-27.829,85.999
		c-49.983,0.588-95.25,15.287-128.602,38.857c-8.706-8.133-20.487-13.136-33.469-13.136c-26.791,0-48.508,21.266-48.508,47.498
		c0,18.672,11.007,34.817,27.009,42.579c-1.538,7.063-2.348,14.299-2.348,21.676c0,75.939,84.633,137.5,189.033,137.5
		c104.401,0,189.034-61.561,189.034-137.5c0-7.441-0.822-14.742-2.388-21.861C453.319,246.565,464.157,230.528,464.157,212.003z
		 M155.264,252.486c0-16.394,13.29-29.683,29.683-29.683c16.394,0,29.684,13.289,29.684,29.683c0,16.395-13.29,29.684-29.684,29.684
		C168.554,282.17,155.264,268.881,155.264,252.486z M322.368,340.76c0,0-22.397,22.709-72.091,22.709
		c-49.692,0-71.494-22.52-71.494-22.52l0.004-0.004c-2.242-2.137-3.646-5.145-3.646-8.486c0-6.477,5.251-11.727,11.728-11.727
		c2.074,0,4.019,0.541,5.708,1.488l0.002-0.004c0,0,0.013,0.01,0.015,0.014c1.05,0.588,1.995,1.336,2.814,2.207
		c6.958,5.088,26.464,17.166,54.869,17.166c19.506,0,42.89-9.033,56.184-18.045c0.578-0.498,1.204-0.938,1.873-1.314
		c0.013-0.01,0.026-0.018,0.039-0.027l0.002,0.004c1.69-0.945,3.635-1.488,5.709-1.488c6.477,0,11.727,5.25,11.727,11.727
		C325.811,335.701,324.495,338.637,322.368,340.76z M316.933,282.17c-16.394,0-29.683-13.289-29.683-29.684
		c0-16.394,13.289-29.683,29.683-29.683s29.683,13.289,29.683,29.683C346.615,268.881,333.326,282.17,316.933,282.17z"/>
	<path id="GitHub" display="none" d="M250,41.623c-117.913,0-213.5,95.587-213.5,213.5c0,96.164,63.583,177.47,150.999,204.195
		c0.505,0.065,4.108,0.42,6.468-3.12c2.536-3.804,2.033-11.41,2.033-11.41v-39.556c0,0-15.092,3.043-24.727,2.789
		c-9.636-0.254-24.535-2.662-35.184-11.664c-14.273-12.064-16.115-27.277-23.678-36.387c-11.791-14.199-19.889-13.058-20.649-19.144
		s17.085-7.016,30.942,3.296c16.355,12.172,17.042,34.321,47.939,36.918c13.3,1.117,25.6-5.223,25.6-5.223
		s5.072-22.313,14.201-28.398c-35.161-7.1-94.832-9.129-97.706-104.468c-1.177-39.049,22.652-56.629,22.652-56.629
		s-10.481-23.495,2.028-56.627c25.483-2.876,58.151,21.976,58.151,21.976s27.046-6.762,54.431-6.762s52.741,7.1,52.741,7.1
		s33.09-25.189,58.826-22.435c14.073,26.786,2.367,56.244,2.367,56.244s21.638,20.96,21.638,56.122s-9,99.735-97.238,105.145
		C302.109,358.196,303,378.188,303,384.949s0,59.839,0,59.839s-0.764,9.636,2.025,12.805c2.361,2.683,5.194,2.342,6.032,2.174
		c88.19-26.246,152.475-107.928,152.475-204.644C463.532,137.21,367.913,41.623,250,41.623z"/>
	<path id="Deezer" display="none" d="M115.563,369H38.139v-23.459h77.424V369z M115.563,338.509H38.139v-23.476h77.424V338.509z
		 M115.563,308.009H38.139v-23.47h77.424V308.009z M115.563,277.494H38.139v-23.458h77.424V277.494z M115.563,246.987H38.139
		v-23.464h77.424V246.987z M202.392,369h-77.435v-23.459h77.435V369z M202.392,338.509h-77.435v-23.476h77.435V338.509z
		 M202.392,308.009h-77.435v-23.47h77.435V308.009z M289.215,369h-77.43v-23.459h77.435L289.215,369L289.215,369z M289.215,338.509
		h-77.43v-23.476h77.435L289.215,338.509L289.215,338.509z M289.215,308.009h-77.43v-23.47h77.435L289.215,308.009L289.215,308.009z
		 M289.215,277.494h-77.43v-23.458h77.435L289.215,277.494L289.215,277.494z M289.215,246.987h-77.43v-23.464h77.435
		L289.215,246.987L289.215,246.987z M289.215,216.479h-77.43v-23.463h77.435L289.215,216.479L289.215,216.479z M289.215,185.983
		h-77.43v-23.47h77.435L289.215,185.983L289.215,185.983z M376.031,369h-77.428v-23.459h77.435L376.031,369L376.031,369z
		 M376.031,338.509h-77.428v-23.476h77.435L376.031,338.509L376.031,338.509z M376.031,308.009h-77.428v-23.47h77.435
		L376.031,308.009L376.031,308.009z M376.031,277.494h-77.428v-23.458h77.435L376.031,277.494L376.031,277.494z M376.031,246.987
		h-77.428v-23.464h77.435L376.031,246.987L376.031,246.987z M462.861,369h-77.437v-23.459h77.43V369H462.861z M462.861,338.509
		h-77.437v-23.476h77.43v23.476H462.861z M462.861,307.991h-77.437v-23.465h77.43v23.465H462.861z M462.861,277.494h-77.437V254.02
		h77.43v23.475H462.861z M462.861,246.987h-77.437v-23.481h77.43v23.481H462.861z M462.861,216.473h-77.437v-23.458h77.43v23.458
		H462.861z M462.861,185.966h-77.437v-23.458h77.43v23.458H462.861z M385.425,155.464V132h77.43v23.464H385.425z"/>
	<path id="Orchester" display="none" fill="none" stroke="#000000" stroke-width="20" stroke-miterlimit="10" d="M206.223,442.495
		c0,24.042,23.081,37.505,37.504,37.505s33.177-11.54,33.177-33.176c0-115.398-63.949-294.986-63.949-378.408
		c0-16.349,6.25-48.083,39.188-48.083c32.936,0,39.185,34.62,39.185,43.274c0,52.89-135.109,128.862-135.109,199.063
		c0,70.199,58.659,90.393,100.973,90.393s79.335-25.965,79.335-79.336c0-36.061-32.215-70.199-70.199-70.199
		c-37.985,0-50.005,27.405-50.005,50.004c0,22.6,17.79,45.843,40.56,45.843"/>
	<g id="Amazon" display="none">
		<path display="inline" d="M231.154,392.987C94.885,386.662,45.044,334.266,35.29,339.144
			c-17.793,8.898,73.253,74.132,191.963,85.057c95.117,8.755,201.716-47.796,191.963-61.256
			C409.629,349.715,368.228,399.349,231.154,392.987z"/>
		<path display="inline" d="M456.769,336.021c-2.284-2.552-20.778-7.032-39.798-4.682c-26.044,3.219-39.172,13.673-37.749,16.68
			c1.468,3.095,17.944,0.264,32.481-0.878c11.574-0.909,21.404-0.701,25.167,4.097c3.028,3.866,1.717,14.11-0.586,22.825
			c-4.097,15.509-19.294,29.198-10.827,32.774c7.456,3.147,24.191-24.673,28.385-36.579
			C458.789,356.213,458.698,338.179,456.769,336.021z"/>
		<path display="inline" d="M204.63,187.993c-43.988,16.256-64.385,42.294-64.385,77.798c0,35.506,18.728,73.033,72.961,73.033
			c54.233,0,76.084-33.625,76.084-33.625s17.946,22.629,24.579,29.263c6.634,6.634,10.339,4.878,15.217,0
			s31.799-26.727,33.944-28.873s7.804-5.462,0-15.217c-7.803-9.754-16.777-21.85-16.777-38.113c0-16.266,0.78-67.232,0-103.127
			S322.452,75,251.834,75c-70.621,0-93.119,38.942-103.396,67.109c-2.733,7.491,0.39,11.706,8.583,13.265
			c8.193,1.561,29.263,4.292,39.797,4.292c10.535,0,11.302-4.898,13.266-8.194c1.964-3.295,2.341-26.373,33.21-26.373
			s36.239,20.521,37.409,30.274c1.172,9.754-1.56,19.899-1.56,19.899S232.715,177.614,204.63,187.993z M280,241.211
			c0,14.047-10.231,51.795-41.98,51.795c-20.777,0-28.61-15.802-28.61-34.236c0-26.337,14.59-45.65,70.59-45.65
			C280,213.119,280,235.852,280,241.211z"/>
	</g>
	<g id="Opal" display="none">
		<path display="inline" fill-rule="evenodd" clip-rule="evenodd" d="M330.8,133.964c-11.538-1.25-23.087-2.398-34.61-3.77
			c-27.379-3.261-54.738-6.694-82.119-9.93c-22.695-2.683-45.684-3.787-68.05-8.129c-25.824-5.014-63.444,12.579-73.445,48.884
			c-6.784,24.624-3.299,48.524,9.325,70.572c11.102,19.388,28.643,29.641,50.997,29.857c40.837,0.395,81.706,0.898,122.515-0.27
			c28.701-0.822,51.398-12.839,61.386-42.204c0.511-1.503,2.441-3.538,3.771-3.584c9.124-0.315,18.262-0.165,28.204-0.165
			c-6.176,33.389-24.355,56.175-54.396,68.843c-10.11,4.264-21.499,7.369-32.377,7.605c-42.816,0.926-85.667,0.973-128.493,0.434
			c-41.861-0.525-76.113-26.354-88.127-66.785c-11.034-37.132-10.542-73.648,14.488-105.74
			c22.224-28.492,51.942-41.521,88.383-37.783c35.099,3.601,70.2,7.181,105.294,10.829c28.27,2.937,53.881,11.693,73.247,33.897
			c1.605,1.842,3.131,3.754,4.692,5.633C331.257,132.762,331.028,133.363,330.8,133.964z"/>
		<path display="inline" fill-rule="evenodd" clip-rule="evenodd" d="M239.472,432.836c2.178-6.26,4.342-12.551,6.556-18.826
			c5.536-15.688,10.495-31.609,16.765-46.998c13.264-32.561,38.548-50.48,72.608-56.021c11.437-1.859,23.277-1.545,34.938-1.656
			c34.186-0.324,61.284-26.783,61.339-60.206c0.054-31.792-28.35-59.844-61.192-60.172c-21.407-0.214-42.826,0.273-64.226-0.199
			c-18.225-0.402-33.02-8.233-43.965-22.978c-1.032-1.392-1.931-2.895-2.777-4.411c-0.322-0.576-0.325-1.332-0.593-2.542
			c2.426-0.143,4.573-0.379,6.722-0.378c34.106,0.014,68.215-0.29,102.314,0.194c32.936,0.468,59.671,13.611,78.67,41.099
			c30.975,44.813,14.237,125.751-56.695,137.888c-11.431,1.957-23.294,1.771-34.963,1.875
			c-36.534,0.322-56.814,14.832-68.286,49.402c-2.814,8.48-5.362,17.055-8.387,25.459
			C272.395,430.771,255.691,438.861,239.472,432.836z"/>
	</g>
	<g id="IML" display="none">
		<polygon display="inline" points="36,352.983 91,386.597 91,63.667 36,95.959 		"/>
		<polygon display="inline" points="128,147.365 128,406.366 182,438 182,248.856 237.829,275.876 292.925,251.492 292.942,438
			347,406.366 347,147.365 238.163,212.609 		"/>
		<polygon display="inline" points="495.182,256.765 441,283.785 441,95.3 383,64.326 383,386.597 550.799,289.716 		"/>
	</g>
	<g display="none">
		<path display="inline" d="M250.389,58.752c51.178,0,99.292,19.93,135.479,56.118c36.188,36.188,56.117,84.302,56.117,135.479
			s-19.93,99.292-56.117,135.479s-84.302,56.117-135.479,56.117s-99.292-19.93-135.479-56.117
			c-36.188-36.188-56.117-84.302-56.117-135.479s19.929-99.292,56.117-135.479C151.097,78.682,199.211,58.752,250.389,58.752
			 M250.389,39.752c-116.31,0-210.597,94.288-210.597,210.597s94.287,210.597,210.597,210.597
			c116.31,0,210.597-94.287,210.597-210.597S366.698,39.752,250.389,39.752L250.389,39.752z"/>
	</g>
	<path display="none" d="M260.859,482.276c0,0-0.237-54.869,1.216-114.603c0.821-33.777,51.377-62.542,76.095-47.612
		c31.486,19.017,104.037,62.84,104.037,62.84l3.177,1.918c5.73-8.296,10.956-16.972,15.608-25.988l-3.924-2.112
		c0,0-47.876-26.812-99.149-57.488c-28.994-17.346-29.138-75.512-3.971-89.674c32.057-18.042,105.922-59.609,105.922-59.609
		l4.03-2.268c-4.49-9.321-9.588-18.294-15.214-26.889l-4.574,2.898c0,0-46.99,28.571-98.87,58.21
		C315.904,198.659,265,170.256,265,141.38c0-36.785,0-121.543,0-121.543V13.97c-5-0.306-9.75-0.48-14.756-0.48
		c-5.789,0-11.032,0.218-16.716,0.626l0.472,5.72c0,0,0,84.758,0,121.543c0,28.876-50.948,57.279-80.284,40.519
		c-51.881-29.639-98.82-58.21-98.82-58.21l-3.282-2.014c-5.562,8.58-10.637,17.539-15.071,26.835l2.528,1.438
		c0,0,73.852,41.568,105.909,59.609c25.166,14.162,25.016,72.328-3.979,89.674c-51.272,30.677-99.151,57.488-99.151,57.488
		l-2.473,1.329c4.608,9.012,9.785,17.682,15.468,25.978l1.861-1.124c0,0,72.551-43.823,104.038-62.84
		c24.717-14.93,75.272,13.835,76.094,47.612c1.453,59.733,1.216,114.603,1.216,114.603l-0.098,4.61
		c4.117,0.213,8.262,0.322,12.433,0.322c3.543,0,7.065-0.093,10.57-0.246L260.859,482.276z"/>
	<g id="Wiki_German" display="none">
		<g display="inline">
			<defs>
				<polygon id="SVGID_1_" points="186.808,398.371 464.896,398.371 464.896,101.541 313.032,101.541 				"/>
			</defs>
			<clipPath id="SVGID_2_">
				<use xlink:href="#SVGID_1_"  overflow="visible"/>
			</clipPath>
			<rect x="186.808" y="101.741" clip-path="url(#SVGID_2_)" fill="#232323" width="278.088" height="297.718"/>
			<rect x="186.808" y="202.965" clip-path="url(#SVGID_2_)" fill="#545454" width="278.088" height="196.494"/>
			<rect x="186.808" y="301.212" clip-path="url(#SVGID_2_)" fill="#AFAFAF" width="278.088" height="98.247"/>
		</g>
		<path id="Wikipedia_2_" display="inline" d="M464.558,101.541c0,0-66.511,0-88.39,0l-6.494,1.07v8.548
			c0,0.91,3.158,1.75,3.997,2.374c0.837,0.625,2.945,1.018,3.854,1.018l7.996,0.429c9.155,0.428,11.794,2.462,15.436,5.799
			c3.391,3.408,4.088,9.261,1.285,17.435l-78.234,204.332l-2.944-0.875l-49.736-111.892c0.732-1.678,1.16-2.57,1.16-2.57
			l40.635-83.66c4.641-8.78,9.459-16.703,11.688-20.416c4.177-6.728,6.266-7.959,17.936-8.583c2.427,0,3.303-1.106,3.303-3.409
			v-8.495l-0.714-0.892c0,0-48.541-0.196-70.741,0l0.037,0.874v8.548c0,0.91-0.5,1.749,0.304,2.374
			c0.605,0.749,0.981,1.018,1.855,1.018l3.355,0.428c9.136,0.464,13.223,3.069,14.49,4.765c2.105,2.802,3.069,5.943-2.089,18.47
			l-31.353,68.742l-28.358-63.745c-9.261-20.291-11.563-26.572,2.463-27.786l3.765-0.874c2.694,0,2.266-1.071,2.266-3.106v-8.833
			l-0.357-0.785c0,0-51.859,0-75.521,0l-0.375,0.82v8.941c0,1.928,2.052,2.516,5.746,3.105c13.046,1.874,12.831,3.373,25.787,31.605
			c1.892,4.229,7.691,16.988,7.691,16.988l29.5,63.762c0,0,3.337,8.173,8.601,20.861l-42.9,94.101l-2.48-0.786
			c0,0-66.653-154.204-85.891-205.849c-1.98-5.352-2.944-9.278-2.944-11.67c0-5.229,4.372-8.12,12.938-8.477l13.134-0.446
			c2.694,0,7.104-1.106,7.104-3.552v-8.423l-3.944-0.856c0,0-81.59-0.125-98.08,0l-2.733,0.858v8.869
			c0,1.624,2.106,2.641,5.854,3.105c10.189,0.589,16.953,2.32,20.112,5.248c3.266,3.087,6.656,10.618,11.1,22.342
			c24.199,63.976,75.683,177.937,100.756,242.824c7.263,17.613,16.275,20.505,27.357-0.501
			c11.315-23.002,34.103-74.361,50.805-112.087c15.615,37.689,36.71,88.728,47.041,111.767c8.03,18.452,17.293,20.414,26.858,0.695
			c24.662-60.229,96.633-241.611,96.633-241.611c3.248-8.851,7.478-15.722,13.009-20.7c5.693-4.872,13.849-7.746,25.485-8.209
			c2.39,0,3.283-1.232,3.283-3.409v-8.53L464.558,101.541z"/>
	</g>
	<g id="Wiki_English" display="none">
		<g id="USA" display="inline">
			<defs>
				<polygon id="SVGID_3_" points="186.809,399.604 464.896,399.604 464.896,102.309 313.031,102.309 				"/>
			</defs>
			<clipPath id="SVGID_4_">
				<use xlink:href="#SVGID_3_"  overflow="visible"/>
			</clipPath>
			<rect x="186.809" y="102.309" clip-path="url(#SVGID_4_)" fill="#545454" width="278.088" height="49.701"/>
			<rect x="186.809" y="127.16" clip-path="url(#SVGID_4_)" fill="#AFAFAF" width="278.088" height="24.851"/>
			<rect x="186.809" y="152.048" clip-path="url(#SVGID_4_)" fill="#545454" width="278.088" height="49.702"/>
			<rect x="186.809" y="176.898" clip-path="url(#SVGID_4_)" fill="#AFAFAF" width="278.088" height="24.852"/>
			<rect x="186.809" y="201.759" clip-path="url(#SVGID_4_)" fill="#545454" width="278.088" height="49.701"/>
			<rect x="186.809" y="226.61" clip-path="url(#SVGID_4_)" fill="#AFAFAF" width="278.088" height="24.85"/>
			<rect x="186.809" y="251.46" clip-path="url(#SVGID_4_)" fill="#545454" width="278.088" height="49.701"/>
			<rect x="186.809" y="276.311" clip-path="url(#SVGID_4_)" fill="#AFAFAF" width="278.088" height="24.851"/>
			<rect x="186.809" y="300.862" clip-path="url(#SVGID_4_)" fill="#545454" width="278.088" height="49.702"/>
			<rect x="186.809" y="325.714" clip-path="url(#SVGID_4_)" fill="#AFAFAF" width="278.088" height="24.851"/>
			<rect x="186.809" y="349.902" clip-path="url(#SVGID_4_)" fill="#545454" width="278.088" height="49.701"/>
			<rect x="186.809" y="374.752" clip-path="url(#SVGID_4_)" fill="#AFAFAF" width="278.088" height="24.852"/>
			<rect x="186.809" y="102.509" clip-path="url(#SVGID_4_)" fill="#232323" width="170.735" height="148.951"/>
			<polygon clip-path="url(#SVGID_4_)" fill="#AFAFAF" points="331.76,216.857 334.659,223.417 341.802,222.643 337.558,228.429
				341.802,234.214 334.659,233.439 331.76,240 328.86,233.439 321.718,234.214 325.963,228.429 321.718,222.643 328.86,223.417
				"/>
			<polygon clip-path="url(#SVGID_4_)" fill="#AFAFAF" points="331.76,189.623 334.659,196.184 341.802,195.409 337.558,201.194
				341.802,206.98 334.659,206.205 331.76,212.766 328.86,206.205 321.718,206.98 325.963,201.194 321.718,195.409 328.86,196.184
							"/>
			<polygon clip-path="url(#SVGID_4_)" fill="#AFAFAF" points="331.76,161.449 334.659,168.01 341.802,167.235 337.558,173.021
				341.802,178.807 334.659,178.031 331.76,184.592 328.86,178.031 321.718,178.807 325.963,173.021 321.718,167.235 328.86,168.01
							"/>
			<polygon clip-path="url(#SVGID_4_)" fill="#AFAFAF" points="308.548,203.072 311.445,209.634 318.588,208.858 314.344,214.644
				318.588,220.43 311.445,219.655 308.548,226.216 305.647,219.655 298.504,220.43 302.749,214.644 298.504,208.858
				305.647,209.634 			"/>
			<polygon clip-path="url(#SVGID_4_)" fill="#AFAFAF" points="308.548,175.073 311.445,181.634 318.588,180.859 314.344,186.645
				318.588,192.431 311.445,191.655 308.548,198.217 305.647,191.655 298.504,192.431 302.749,186.645 298.504,180.859
				305.647,181.634 			"/>
			<polygon clip-path="url(#SVGID_4_)" fill="#AFAFAF" points="331.76,134.252 334.659,140.813 341.802,140.038 337.558,145.824
				341.802,151.609 334.659,150.835 331.76,157.395 328.86,150.835 321.718,151.609 325.963,145.824 321.718,140.038
				328.86,140.813 			"/>
			<polygon clip-path="url(#SVGID_4_)" fill="#AFAFAF" points="331.76,106.079 334.659,112.639 341.802,111.865 337.558,117.65
				341.802,123.436 334.659,122.661 331.76,129.222 328.86,122.661 321.718,123.436 325.963,117.65 321.718,111.865 328.86,112.639
							"/>
			<polygon clip-path="url(#SVGID_4_)" fill="#AFAFAF" points="308.548,147.702 311.445,154.263 318.588,153.488 314.344,159.274
				318.588,165.06 311.445,164.284 308.548,170.846 305.647,164.284 298.504,165.06 302.749,159.274 298.504,153.488
				305.647,154.263 			"/>
			<polygon clip-path="url(#SVGID_4_)" fill="#AFAFAF" points="308.548,119.702 311.445,126.263 318.588,125.488 314.344,131.274
				318.588,137.06 311.445,136.285 308.548,142.846 305.647,136.285 298.504,137.06 302.749,131.274 298.504,125.488
				305.647,126.263 			"/>
			<polygon clip-path="url(#SVGID_4_)" fill="#AFAFAF" points="284.006,216.857 286.904,223.417 294.05,222.643 289.805,228.429
				294.05,234.214 286.904,233.439 284.006,240 281.108,233.439 273.964,234.214 278.209,228.429 273.964,222.643 281.108,223.417
							"/>
			<polygon clip-path="url(#SVGID_4_)" fill="#AFAFAF" points="284.006,189.623 286.904,196.184 294.05,195.409 289.805,201.194
				294.05,206.98 286.904,206.205 284.006,212.766 281.108,206.205 273.964,206.98 278.209,201.194 273.964,195.409
				281.108,196.184 			"/>
		</g>
		<path id="Wikipedia_1_" display="inline" d="M464.558,102.309c0,0-66.511,0-88.39,0l-6.494,1.068v8.53
			c0,0.908,3.159,1.746,3.998,2.369c0.836,0.623,2.944,1.015,3.854,1.015l7.995,0.428c9.155,0.427,11.794,2.457,15.436,5.788
			c3.391,3.4,4.088,9.241,1.285,17.398l-78.234,203.904l-2.944-0.873l-49.736-111.658c0.732-1.674,1.16-2.564,1.16-2.564
			l40.636-83.485c4.64-8.762,9.458-16.668,11.688-20.373c4.177-6.713,6.265-7.943,17.935-8.565c2.427,0,3.303-1.104,3.303-3.401
			v-8.477l-0.714-0.89c0,0-48.541-0.196-70.741,0l0.037,0.872v8.53c0,0.908-0.5,1.746,0.304,2.369
			c0.605,0.748,0.981,1.016,1.855,1.016l3.355,0.427c9.136,0.463,13.223,3.063,14.49,4.755c2.106,2.796,3.069,5.93-2.088,18.432
			l-31.354,68.597l-28.357-63.611c-9.26-20.248-11.563-26.517,2.463-27.727l3.765-0.873c2.693,0,2.266-1.069,2.266-3.1v-8.814
			l-0.356-0.784c0,0-51.859,0-75.522,0l-0.374,0.818v8.922c0,1.924,2.052,2.511,5.745,3.099c13.046,1.87,12.832,3.366,25.787,31.539
			c1.892,4.22,7.692,16.953,7.692,16.953l29.499,63.629c0,0,3.337,8.156,8.602,20.817L199.5,342.291l-2.48-0.784
			c0,0-66.652-153.881-85.891-205.418c-1.98-5.342-2.944-9.26-2.944-11.646c0-5.218,4.372-8.103,12.938-8.459l13.135-0.445
			c2.693,0,7.103-1.104,7.103-3.544v-8.406l-3.944-0.854c0,0-81.59-0.124-98.079,0l-2.734,0.856v8.851
			c0,1.62,2.106,2.635,5.854,3.098c10.189,0.588,16.953,2.315,20.111,5.237c3.266,3.081,6.657,10.595,11.1,22.295
			c24.199,63.842,75.683,177.565,100.756,242.315c7.262,17.577,16.274,20.463,27.356-0.499
			c11.316-22.954,34.103-74.206,50.806-111.853c15.615,37.61,36.71,88.542,47.041,111.532c8.03,18.414,17.293,20.372,26.858,0.694
			c24.662-60.103,96.632-241.105,96.632-241.105c3.249-8.833,7.479-15.689,13.01-20.657c5.693-4.862,13.849-7.729,25.485-8.192
			c2.39,0,3.283-1.229,3.283-3.401v-8.512L464.558,102.309z"/>
	</g>
	<g id="IMDb">
		<path d="M282.813,209H282v81h0.813c5.577,0,9.188-2.638,9.188-5.734v-69.533C292,211.636,288.39,209,282.813,209z"/>
		<path d="M369.638,237h-0.275c-2.962,0-5.362,1.939-5.362,4.331v49.088c0,2.392,2.4,4.581,5.362,4.581h0.275
			c2.962,0,5.362-2.189,5.362-4.581v-49.088C375,238.939,372.6,237,369.638,237z"/>
		<path d="M441.601,148H58.332C47.25,148,38,157.401,38,168.537v162.301C38,341.974,47.25,351,58.332,351h383.269
			c11.082,0,20.399-9.026,20.399-20.162V168.537C462,157.401,452.683,148,441.601,148z M129,312H97V188h32V312z M239,312
			l-27.333-0.666L211,222.5l-11.75,89L180,310.75l-13-89V312h-27V188l41.125-0.063l8.542,57.729L197,188h42V312z M317.5,303.917
			c-5.833,6.5-13.334,8.083-25.167,8.083S250,312,250,312V188h30c0,0,25.668-1.333,35.334,8.833s6.333,13.833,6.833,20.5
			s0.167,64.333,0.167,64.333S323.333,297.417,317.5,303.917z M384.75,313.125C366.25,313.125,364,304,364,304v7h-31V188h31v39.516
			c3.612-3.345,10.209-7.516,20.667-7.516c17.458,0,20.833,12.584,20.833,16.167s0.125,49.958,0.125,54.208
			S403.25,313.125,384.75,313.125z"/>
	</g>
</g>
<g id="Layer_3">
</g>
</svg>
