<?xml version="1.0" encoding="utf-8"?>
<!-- Generator: Adobe Illustrator 16.0.0, SVG Export Plug-In . SVG Version: 6.00 Build 0)  -->
<!DOCTYPE svg PUBLIC "-//W3C//DTD SVG 1.1//EN" "http://www.w3.org/Graphics/SVG/1.1/DTD/svg11.dtd">
<svg version="1.1" id="Layer_1" xmlns="http://www.w3.org/2000/svg"  x="0px" y="0px"
	 width="500px" height="500px" viewBox="0 0 500 500" enable-background="new 0 0 500 500" xml:space="preserve">
<g id="Opal">
	<path fill-rule="evenodd" clip-rule="evenodd" d="M330.8,134.613c-11.538-1.25-23.087-2.398-34.61-3.77
		c-27.379-3.261-54.738-6.694-82.119-9.93c-22.695-2.683-45.684-3.787-68.05-8.129c-25.824-5.014-63.444,12.579-73.445,48.884
		c-6.784,24.624-3.299,48.524,9.325,70.572c11.102,19.388,28.643,29.641,50.997,29.857c40.837,0.395,81.706,0.898,122.515-0.27
		c28.701-0.822,51.398-12.839,61.386-42.204c0.511-1.503,2.441-3.538,3.771-3.584c9.124-0.315,18.262-0.165,28.204-0.165
		c-6.176,33.389-24.355,56.175-54.396,68.843c-10.11,4.264-21.499,7.369-32.377,7.605c-42.816,0.926-85.667,0.973-128.493,0.434
		c-41.861-0.525-76.113-26.354-88.127-66.785c-11.034-37.132-10.542-73.648,14.488-105.74
		c22.224-28.492,51.942-41.521,88.383-37.783c35.099,3.601,70.2,7.181,105.294,10.829c28.27,2.937,53.881,11.693,73.247,33.897
		c1.605,1.842,3.131,3.754,4.692,5.633C331.257,133.41,331.028,134.012,330.8,134.613z"/>
	<path fill-rule="evenodd" clip-rule="evenodd" d="M239.472,433.484c2.178-6.26,4.342-12.551,6.556-18.826
		c5.536-15.688,10.495-31.609,16.765-46.998c13.264-32.561,38.548-50.48,72.608-56.021c11.437-1.859,23.277-1.545,34.938-1.656
		c34.186-0.324,61.284-26.783,61.339-60.206c0.054-31.792-28.35-59.844-61.192-60.172c-21.407-0.214-42.826,0.273-64.226-0.199
		c-18.225-0.402-33.02-8.233-43.965-22.978c-1.032-1.392-1.931-2.895-2.777-4.411c-0.322-0.576-0.325-1.332-0.593-2.542
		c2.426-0.143,4.573-0.379,6.722-0.378c34.106,0.014,68.215-0.29,102.314,0.194c32.936,0.468,59.671,13.611,78.67,41.099
		c30.975,44.813,14.237,125.751-56.695,137.888c-11.431,1.957-23.294,1.771-34.963,1.875c-36.534,0.322-56.814,14.832-68.286,49.402
		c-2.814,8.48-5.362,17.055-8.387,25.459C272.395,431.42,255.691,439.51,239.472,433.484z"/>
</g>
</svg>
