<?xml version="1.0" encoding="utf-8"?>
<!-- Generator: Adobe Illustrator 16.0.0, SVG Export Plug-In . SVG Version: 6.00 Build 0)  -->
<!DOCTYPE svg PUBLIC "-//W3C//DTD SVG 1.1//EN" "http://www.w3.org/Graphics/SVG/1.1/DTD/svg11.dtd">
<svg version="1.1" id="Layer_1" xmlns="http://www.w3.org/2000/svg"  x="0px" y="0px"
	 width="500px" height="500px" viewBox="0 0 500 500" enable-background="new 0 0 500 500" xml:space="preserve">
<path id="YouTube" d="M453.789,148.577c-4.867-18.12-19.201-32.454-37.592-37.322c-33.264-8.654-166.323-8.654-166.323-8.654
	s-130.625-0.541-163.89,8.114c-18.391,4.868-35.97,19.742-40.837,37.862c-8.925,32.994-8.114,101.417-8.114,101.417
	s-0.811,68.423,8.114,101.417c4.868,18.118,22.717,32.994,40.837,37.861c33.264,8.925,163.89,8.113,163.89,8.113
	s130.625,0.542,163.889-8.113c18.391-4.867,35.428-19.743,40.296-37.861c8.926-32.724,8.926-101.417,8.926-101.417
	S462.715,181.571,453.789,148.577z M209,315.44V184.546l106.285,65.448L209,315.44z"/>
</svg>
