<?xml version="1.0" encoding="UTF-8" standalone="no"?>
<svg
   xmlns:dc="http://purl.org/dc/elements/1.1/"
   xmlns:cc="http://creativecommons.org/ns#"
   xmlns:rdf="http://www.w3.org/1999/02/22-rdf-syntax-ns#"
   xmlns:svg="http://www.w3.org/2000/svg"
   xmlns="http://www.w3.org/2000/svg"
   xmlns:sodipodi="http://sodipodi.sourceforge.net/DTD/sodipodi-0.dtd"
   xmlns:inkscape="http://www.inkscape.org/namespaces/inkscape"
   id="Layer_1"
   enable-background="new 0 0 511.505 511.505"
   height="52"
   viewBox="0 0 51.949727 51.949727"
   width="52"
   version="1.1"
   sodipodi:docname="cat.svg"
   inkscape:version="0.92.4 (5da689c313, 2019-01-14)">
  <metadata
     id="metadata19">
    <rdf:RDF>
      <cc:Work
         rdf:about="">
        <dc:format>image/svg+xml</dc:format>
        <dc:type
           rdf:resource="http://purl.org/dc/dcmitype/StillImage" />
        <dc:title></dc:title>
      </cc:Work>
    </rdf:RDF>
  </metadata>
  <defs
     id="defs17" />
  <sodipodi:namedview
     pagecolor="#ffffff"
     bordercolor="#666666"
     borderopacity="1"
     objecttolerance="10"
     gridtolerance="10"
     guidetolerance="10"
     inkscape:pageopacity="0"
     inkscape:pageshadow="2"
     inkscape:window-width="1920"
     inkscape:window-height="1017"
     id="namedview15"
     showgrid="false"
     inkscape:zoom="7.375"
     inkscape:cx="37.425666"
     inkscape:cy="12.670893"
     inkscape:window-x="-8"
     inkscape:window-y="-8"
     inkscape:window-maximized="1"
     inkscape:current-layer="g832"
     inkscape:snap-center="true"
     inkscape:snap-bbox="true"
     inkscape:snap-bbox-midpoints="true"
     inkscape:snap-object-midpoints="true"
     inkscape:bbox-nodes="true" />
  <g
     id="g832"
     transform="matrix(0.09765676,0,0,0.09765676,-1.1883806,1.9959954)">
    <g
       id="g12"
       transform="translate(20.460094,-10.209506)">
      <path
         id="path2"
         d="m 236.719,186.481 c -0.601,2.532 0.154,5.195 1.994,7.035 l 25.803,25.803 c 1.464,1.464 3.384,2.197 5.303,2.197 1.919,0 3.839,-0.732 5.303,-2.197 l 25.803,-25.803 c 1.84,-1.84 2.595,-4.503 1.994,-7.035 -0.601,-2.532 -2.472,-4.572 -4.943,-5.389 -18.157,-6.003 -38.157,-6.003 -56.314,0 -2.471,0.817 -4.342,2.857 -4.943,5.389 z m 44.118,5.91 -11.018,11.018 -11.018,-11.018 c 7.294,-1.075 14.743,-1.075 22.036,0 z"
         inkscape:connector-curvature="0" />
      <path
         id="path4"
         d="m 219.715,127.307 c -15.183,0 -27.535,12.352 -27.535,27.535 0,4.142 3.358,7.5 7.5,7.5 4.142,0 7.5,-3.358 7.5,-7.5 0,-6.912 5.623,-12.535 12.535,-12.535 6.912,0 12.535,5.623 12.535,12.535 0,4.142 3.358,7.5 7.5,7.5 4.142,0 7.5,-3.358 7.5,-7.5 0,-15.182 -12.352,-27.535 -27.535,-27.535 z"
         inkscape:connector-curvature="0" />
      <path
         id="path6"
         d="m 332.458,154.842 c 0,4.142 3.358,7.5 7.5,7.5 4.142,0 7.5,-3.358 7.5,-7.5 0,-15.183 -12.352,-27.535 -27.535,-27.535 -15.183,0 -27.535,12.352 -27.535,27.535 0,4.142 3.358,7.5 7.5,7.5 4.142,0 7.5,-3.358 7.5,-7.5 0,-6.912 5.623,-12.535 12.535,-12.535 6.912,0 12.535,5.623 12.535,12.535 z"
         inkscape:connector-curvature="0" />
      <path
         id="path8"
         d="m 269.819,301.891 c 15.183,0 27.535,-12.352 27.535,-27.535 v -3.866 c 11.549,-3.274 20.035,-13.913 20.035,-26.497 0,-4.142 -3.358,-7.5 -7.5,-7.5 -4.142,0 -7.5,3.358 -7.5,7.5 0,6.912 -5.623,12.535 -12.535,12.535 -6.912,0 -12.535,-5.623 -12.535,-12.535 0,-4.142 -3.358,-7.5 -7.5,-7.5 -4.142,0 -7.5,3.358 -7.5,7.5 0,6.912 -5.623,12.535 -12.535,12.535 -6.912,0 -12.535,-5.623 -12.535,-12.535 0,-4.142 -3.358,-7.5 -7.5,-7.5 -4.142,0 -7.5,3.358 -7.5,7.5 0,12.584 8.485,23.223 20.035,26.497 v 3.866 c 0.001,15.183 12.353,27.535 27.535,27.535 z m 0,-39.028 c 3.369,3.575 7.681,6.252 12.535,7.628 v 3.866 c 0,6.912 -5.623,12.535 -12.535,12.535 -6.912,0 -12.535,-5.623 -12.535,-12.535 v -3.866 c 4.854,-1.376 9.166,-4.053 12.535,-7.628 z"
         inkscape:connector-curvature="0" />
      <path
         id="path10"
         d="m 485.873,222.933 c -18.056,-12.495 -38.008,-19.879 -56.535,-24.179 -0.054,-19.209 -3.898,-37.588 -10.859,-54.499 V 18.384 c 0,-7.151 -4.011,-13.503 -10.469,-16.576 -6.458,-3.074 -13.917,-2.182 -19.49,2.347 l -64.326,52.694 c -16.977,-5.859 -35.29,-9.056 -54.375,-9.056 -19.085,0 -37.397,3.198 -54.375,9.056 L 151.094,4.136 c -5.55,-4.51 -13.01,-5.401 -19.467,-2.328 -6.457,3.073 -10.468,9.425 -10.468,16.576 v 28.945 c 0,4.142 3.358,7.5 7.5,7.5 4.142,0 7.5,-3.358 7.5,-7.5 V 18.384 c 0,-1.845 1.2,-2.692 1.915,-3.032 0.715,-0.341 2.129,-0.738 3.538,0.407 l 57.989,47.503 C 173.747,75.34 151.817,93.868 136.159,116.621 V 82.587 c 0,-4.142 -3.358,-7.5 -7.5,-7.5 -4.142,0 -7.5,3.358 -7.5,7.5 v 61.668 c -6.961,16.911 -10.805,35.29 -10.859,54.499 -18.527,4.299 -38.479,11.684 -56.535,24.178 -3.406,2.357 -4.256,7.029 -1.899,10.435 1.456,2.104 3.795,3.233 6.174,3.233 1.472,0 2.959,-0.432 4.261,-1.333 15.36,-10.629 32.523,-17.179 48.769,-21.17 1.2,11.58 3.781,22.782 7.585,33.454 -11.402,6.423 -23.084,15.095 -32.64,26.688 -2.634,3.196 -2.179,7.923 1.017,10.558 1.397,1.151 3.087,1.713 4.766,1.712 2.163,0 4.309,-0.931 5.792,-2.729 7.769,-9.426 17.355,-16.688 26.896,-22.224 12.489,26.093 32.558,48.253 57.524,63.932 -31.314,11.393 -50.388,43.911 -44.14,77.449 l 9.137,49.042 h -6.984 c -21.562,0 -39.103,17.542 -39.103,39.103 v 5.421 H 82.373 c -24.799,0 -44.974,-20.175 -44.974,-44.974 v -62.494 c 0,-19.181 15.604,-34.785 34.785,-34.785 19.181,0 34.786,15.604 34.786,34.785 0,19.181 -15.605,34.786 -34.786,34.786 -3.767,0 -6.832,-3.065 -6.832,-6.832 0,-3.768 3.065,-6.833 6.832,-6.833 4.142,0 7.5,-3.358 7.5,-7.5 0,-4.142 -3.358,-7.5 -7.5,-7.5 -12.038,0 -21.832,9.794 -21.832,21.833 0,12.038 9.794,21.832 21.832,21.832 27.452,0 49.786,-22.334 49.786,-49.786 0,-27.452 -22.334,-49.785 -49.786,-49.785 -27.452,0 -49.785,22.333 -49.785,49.785 v 62.494 c 0,33.07 26.904,59.974 59.974,59.974 h 348.846 c 4.142,0 7.5,-3.358 7.5,-7.5 v -12.921 c 0,-21.562 -17.542,-39.103 -39.103,-39.103 h -6.984 l 9.137,-49.042 c 6.249,-33.539 -12.827,-66.058 -44.069,-77.433 4.637,-2.902 9.123,-6.04 13.436,-9.409 3.264,-2.55 3.844,-7.263 1.294,-10.527 -2.55,-3.264 -7.262,-3.845 -10.527,-1.294 -25.813,20.161 -58.515,31.265 -92.082,31.265 -58.709,0 -109.354,-33.206 -131.951,-80.76 15.858,-6.977 28.873,-9.32 29.111,-9.362 4.078,-0.702 6.818,-4.575 6.122,-8.654 -0.698,-4.083 -4.575,-6.828 -8.656,-6.13 -1.073,0.184 -15.072,2.672 -32.254,10.183 -3.238,-9.506 -5.399,-19.463 -6.346,-29.743 27.741,-4.59 49.779,-2.427 50.262,-2.377 4.111,0.436 7.813,-2.54 8.254,-6.657 0.442,-4.119 -2.538,-7.815 -6.657,-8.257 -1.621,-0.174 -23.872,-2.41 -52.363,2.058 1.556,-61.072 45.87,-112.327 105.711,-128.068 V 90.99 c 0,4.142 3.358,7.5 7.5,7.5 4.142,0 7.5,-3.358 7.5,-7.5 V 64.636 c 5.33,-0.836 10.758,-1.395 16.266,-1.662 v 41.124 c 0,4.142 3.358,7.5 7.5,7.5 4.142,0 7.5,-3.358 7.5,-7.5 V 62.974 c 5.097,0.247 10.124,0.745 15.069,1.48 V 90.99 c 0,4.142 3.358,7.5 7.5,7.5 4.142,0 7.5,-3.358 7.5,-7.5 V 67.465 c 60.446,15.369 105.341,66.898 106.908,128.376 -28.491,-4.468 -50.742,-2.232 -52.363,-2.058 -4.119,0.442 -7.099,4.139 -6.657,8.257 0.442,4.119 4.149,7.1 8.257,6.657 0.378,-0.04 22.444,-2.259 50.27,2.349 -0.925,10.202 -3.042,20.177 -6.305,29.793 -17.205,-7.529 -31.23,-10.022 -32.305,-10.206 -4.085,-0.698 -7.948,2.044 -8.65,6.122 -0.702,4.079 2.038,7.956 6.116,8.663 0.239,0.041 13.287,2.39 29.172,9.388 -4.312,9.078 -9.71,17.747 -16.152,25.885 -2.571,3.248 -2.022,7.965 1.225,10.536 3.249,2.572 7.966,2.022 10.536,-1.225 7.072,-8.934 13.014,-18.447 17.779,-28.408 9.519,5.531 19.079,12.782 26.83,22.186 1.483,1.799 3.628,2.729 5.792,2.729 1.679,0 3.369,-0.561 4.766,-1.712 3.196,-2.635 3.651,-7.362 1.017,-10.558 -9.539,-11.573 -21.198,-20.235 -32.581,-26.655 3.836,-10.799 6.367,-22.019 7.54,-33.51 16.225,3.994 33.375,10.551 48.755,21.193 1.302,0.901 2.789,1.333 4.261,1.333 2.378,0 4.718,-1.129 6.174,-3.233 2.356,-3.405 1.505,-8.077 -1.901,-10.434 z M 288.507,496.505 h -37.375 c 2.497,-4.353 3.926,-9.394 3.926,-14.762 v -76.136 c 0,-8.14 6.622,-14.762 14.762,-14.762 8.14,0 14.762,6.622 14.762,14.762 v 76.136 c -10e-4,5.368 1.428,10.409 3.925,14.762 z m 98.515,-96.313 -10.79,57.916 c -0.408,2.192 0.18,4.452 1.604,6.167 1.424,1.715 3.539,2.707 5.769,2.707 h 16.01 c 13.291,0 24.103,10.813 24.103,24.103 v 5.421 h -83.539 c 2.497,-4.353 3.926,-9.394 3.926,-14.762 V 337.186 l 2.287,0.572 c 28.066,6.654 45.913,34.078 40.63,62.434 z m -57.917,-60.506 v 142.057 c 0,8.14 -6.622,14.762 -14.762,14.762 -8.14,0 -14.762,-6.622 -14.762,-14.762 v -76.136 c 0,-16.411 -13.351,-29.762 -29.762,-29.762 -16.411,0 -29.762,13.351 -29.762,29.762 v 76.136 c 0,8.14 -6.622,14.762 -14.762,14.762 -8.14,0 -14.762,-6.622 -14.762,-14.762 v -83.492 c 0,-4.142 -3.358,-7.5 -7.5,-7.5 -4.142,0 -7.5,3.358 -7.5,7.5 v 83.492 c 0,5.368 1.429,10.409 3.926,14.762 H 115.92 v -5.421 c 0,-13.291 10.813,-24.103 24.103,-24.103 h 16.01 c 2.229,0 4.344,-0.992 5.769,-2.707 1.425,-1.715 2.013,-3.975 1.604,-6.167 l -10.79,-57.916 c -5.283,-28.356 12.564,-55.779 40.721,-62.455 l 2.196,-0.55 v 26.135 c 0,4.142 3.358,7.5 7.5,7.5 4.142,0 7.5,-3.358 7.5,-7.5 v -23.62 c 18.336,6.99 38.346,10.839 59.286,10.839 20.417,10e-4 40.553,-3.745 59.286,-10.854 z M 340.037,63.261 398.003,15.777 c 1.433,-1.164 2.846,-0.766 3.562,-0.426 0.715,0.34 1.915,1.187 1.915,3.032 v 98.236 C 387.821,93.868 365.891,75.339 340.037,63.261 Z"
         inkscape:connector-curvature="0" />
    </g>
  </g>
</svg>
