<?xml version="1.0" encoding="UTF-8" standalone="no"?>
<svg
   xmlns:dc="http://purl.org/dc/elements/1.1/"
   xmlns:cc="http://creativecommons.org/ns#"
   xmlns:rdf="http://www.w3.org/1999/02/22-rdf-syntax-ns#"
   xmlns:svg="http://www.w3.org/2000/svg"
   xmlns="http://www.w3.org/2000/svg"
   xmlns:sodipodi="http://sodipodi.sourceforge.net/DTD/sodipodi-0.dtd"
   xmlns:inkscape="http://www.inkscape.org/namespaces/inkscape"
   id="dino2"
   enable-background="new 0 0 300 300"
   height="52"
   viewBox="0 0 30.46875 30.468749"
   width="52"
   version="1.1"
   sodipodi:docname="diplodocus.svg"
   inkscape:version="0.92.4 (5da689c313, 2019-01-14)">
  <metadata
     id="metadata11">
    <rdf:RDF>
      <cc:Work
         rdf:about="">
        <dc:format>image/svg+xml</dc:format>
        <dc:type
           rdf:resource="http://purl.org/dc/dcmitype/StillImage" />
        <dc:title></dc:title>
      </cc:Work>
    </rdf:RDF>
  </metadata>
  <defs
     id="defs9" />
  <sodipodi:namedview
     pagecolor="#ffffff"
     bordercolor="#666666"
     borderopacity="1"
     objecttolerance="10"
     gridtolerance="10"
     guidetolerance="10"
     inkscape:pageopacity="0"
     inkscape:pageshadow="2"
     inkscape:window-width="1920"
     inkscape:window-height="1017"
     id="namedview7"
     showgrid="false"
     inkscape:zoom="7.375"
     inkscape:cx="3.4327583"
     inkscape:cy="40.43158"
     inkscape:window-x="-8"
     inkscape:window-y="-8"
     inkscape:window-maximized="1"
     inkscape:current-layer="dino2" />
  <g
     id="g820"
     transform="matrix(0.12156432,0,0,0.12156432,-3.0002402,-2.9445322)">
    <path
       id="path2"
       d="m 270.276,242.408 c -0.713,-2.053 -2.947,-3.152 -5.01,-2.496 -1.26,0.398 -31.096,9.291 -57.076,-37.479 -11.555,-20.795 -28.037,-35.021 -48.992,-42.281 -14.424,-4.996 -30.359,-5.561 -46.1,-1.625 l -16.057,4.014 c -9.096,2.279 -18.871,-0.432 -25.508,-7.064 -2.697,-2.697 -4.576,-5.99 -5.432,-9.523 -9.219,-38.059 14.17,-64.617 21.266,-71.617 4.984,2.109 15.746,4.711 27.598,-4.633 3.17,-2.498 4.908,-6.395 4.652,-10.422 -0.256,-4.002 -2.459,-7.623 -5.895,-9.684 l -4.783,-2.869 c -11.451,-6.871 -25.74,-6.189 -36.402,1.727 -20.3,15.077 -52.536,50.368 -40.368,117.3 3.729,20.514 15.79,38.09 35.159,51.65 0.004,0.082 -0.03,0.155 -0.021,0.237 l 4.16,36.797 c 0.229,2.023 1.939,3.551 3.975,3.551 H 92.3 109.159 c 1.986,0 3.672,-1.459 3.959,-3.424 l 2.429,-16.71 c 5.305,0.883 10.648,1.343 16.01,1.343 5.065,0 10.144,-0.463 15.212,-1.253 l 3.427,16.841 c 0.379,1.863 2.018,3.203 3.92,3.203 h 16.859 c 1.986,0 3.672,-1.459 3.959,-3.424 l 3.157,-21.721 c 22.055,15.214 43.702,19.173 60.226,19.173 17.053,0 28.648,-4.203 29.596,-4.557 2.033,-0.765 3.074,-3.003 2.363,-5.054 z M 75.953,222.9 c 2.877,1.665 5.855,3.272 8.99,4.784 0.119,0.057 0.247,0.049 0.369,0.094 l 2.511,22.213 h -8.806 z m 103.433,1.036 1.167,-8.032 c 0.316,-2.188 -1.197,-4.217 -3.383,-4.535 -2.188,-0.32 -4.219,1.197 -4.535,3.383 l -5.121,35.238 h -10.131 l -10.586,-52.029 c -0.441,-2.166 -2.559,-3.57 -4.717,-3.123 -2.166,0.441 -3.562,2.553 -3.123,4.717 l 6.212,30.532 c -9.514,1.445 -19.052,1.351 -28.459,-0.232 l 2.028,-13.95 c 0.316,-2.188 -1.197,-4.217 -3.383,-4.535 -2.176,-0.309 -4.217,1.195 -4.535,3.383 l -5.123,35.238 h -9.824 l -5.219,-46.158 c -0.248,-2.195 -2.242,-3.768 -4.424,-3.525 -2.195,0.248 -3.773,2.229 -3.525,4.424 l 1.541,13.63 C 59.035,205.131 44.158,186.976 40.039,164.328 28.646,101.646 58.499,68.85 77.308,54.877 c 8.057,-5.984 18.854,-6.486 27.518,-1.289 l 4.783,2.869 c 1.199,0.719 1.938,1.934 2.025,3.334 0.092,1.422 -0.5,2.746 -1.621,3.631 -11.271,8.881 -20.746,2.992 -21.113,2.756 -1.488,-0.99 -3.459,-0.875 -4.822,0.291 -1.537,1.318 -37.51,32.826 -25.748,81.367 1.199,4.961 3.811,9.559 7.549,13.297 8.613,8.609 21.291,12.127 33.105,9.17 l 16.057,-4.014 c 14.229,-3.557 28.584,-3.064 41.539,1.422 19.037,6.596 34.049,19.586 44.619,38.609 11.77,21.186 24.553,32.086 35.746,37.512 C 221,243.578 200.14,239.359 179.386,223.936 Z"
       inkscape:connector-curvature="0" />
    <circle
       id="circle4"
       r="2.855"
       cy="55.990002"
       cx="95.490997" />
  </g>
</svg>
