<?xml version="1.0" encoding="UTF-8" standalone="no"?>
<svg
   xmlns:dc="http://purl.org/dc/elements/1.1/"
   xmlns:cc="http://creativecommons.org/ns#"
   xmlns:rdf="http://www.w3.org/1999/02/22-rdf-syntax-ns#"
   xmlns:svg="http://www.w3.org/2000/svg"
   xmlns="http://www.w3.org/2000/svg"
   xmlns:sodipodi="http://sodipodi.sourceforge.net/DTD/sodipodi-0.dtd"
   xmlns:inkscape="http://www.inkscape.org/namespaces/inkscape"
   id="Capa_1"
   enable-background="new 0 0 511.995 511.995"
   height="52"
   viewBox="0 0 51.999492 51.999492"
   width="52"
   version="1.1"
   sodipodi:docname="dog.svg"
   inkscape:version="0.92.4 (5da689c313, 2019-01-14)">
  <metadata
     id="metadata15">
    <rdf:RDF>
      <cc:Work
         rdf:about="">
        <dc:format>image/svg+xml</dc:format>
        <dc:type
           rdf:resource="http://purl.org/dc/dcmitype/StillImage" />
        <dc:title></dc:title>
      </cc:Work>
    </rdf:RDF>
  </metadata>
  <defs
     id="defs13" />
  <sodipodi:namedview
     pagecolor="#ffffff"
     bordercolor="#666666"
     borderopacity="1"
     objecttolerance="10"
     gridtolerance="10"
     guidetolerance="10"
     inkscape:pageopacity="0"
     inkscape:pageshadow="2"
     inkscape:window-width="1920"
     inkscape:window-height="1017"
     id="namedview11"
     showgrid="false"
     inkscape:zoom="7.375"
     inkscape:cx="25.872301"
     inkscape:cy="19.201379"
     inkscape:window-x="-8"
     inkscape:window-y="-8"
     inkscape:window-maximized="1"
     inkscape:current-layer="Capa_1" />
  <g
     id="g829"
     transform="matrix(0.09765625,0,0,0.09765625,1.1591992,0.99999162)">
    <g
       id="g8">
      <path
         id="path2"
         d="m 430.909,61.387 -9.38,-9.38 c -2.929,-2.929 -7.678,-2.929 -10.606,0 -2.929,2.929 -2.929,7.677 0,10.606 l 9.38,9.38 c 8.869,8.869 8.868,23.308 10e-4,32.182 l -23.913,23.903 c -5.544,5.548 -13.426,7.833 -21.08,6.11 -7.664,-1.725 -13.813,-7.174 -16.449,-14.573 L 332.443,45.388 c -2.928,-8.236 -0.829,-17.549 5.342,-23.72 4.307,-4.3 10.025,-6.668 16.101,-6.668 6.069,0 11.784,2.368 16.087,6.663 l 19.77,19.77 c 2.929,2.929 7.678,2.929 10.606,0 2.929,-2.929 2.929,-7.678 0,-10.606 L 380.575,11.053 C 373.435,3.925 363.957,0 353.885,0 c -10.078,0 -19.56,3.925 -26.703,11.057 -5.25,5.25 -8.71,11.868 -10.197,18.909 -3.602,-0.464 -7.237,-0.706 -10.874,-0.706 H 205.903 c -3.638,0 -7.272,0.242 -10.875,0.707 -1.488,-7.039 -4.949,-13.656 -10.199,-18.906 -14.722,-14.722 -38.675,-14.721 -53.396,0 L 81.108,61.385 c -7.131,7.132 -11.059,16.613 -11.059,26.698 0,10.085 3.928,19.567 11.059,26.698 l 23.904,23.904 c 4.674,4.674 10.349,7.942 16.462,9.662 v 56.228 c 0,32.605 18.752,62.187 48.021,76.186 4.375,9.167 11.496,16.774 20.289,21.77 v 22.01 l -7.852,21.922 c -2.508,7.003 -4.328,14.198 -5.503,21.481 -0.171,0.094 -0.342,0.186 -0.512,0.281 l -68.779,-68.779 c -2.929,-2.929 -7.678,-2.929 -10.606,0 -11.964,11.964 -19.415,27.139 -21.547,43.886 -0.523,4.109 2.384,7.864 6.493,8.387 4.106,0.522 7.864,-2.384 8.387,-6.493 1.39,-10.918 5.603,-21.004 12.291,-29.55 L 163.479,377 c -10.899,9.499 -18.874,22.018 -22.872,35.9 -12.631,-1.974 -24.341,-7.888 -33.465,-17.02 -6.869,-6.878 -11.852,-15.005 -14.811,-24.157 -1.274,-3.941 -5.501,-6.103 -9.443,-4.83 -3.941,1.274 -6.104,5.502 -4.829,9.443 3.694,11.429 9.909,21.571 18.471,30.144 11.3,11.309 25.779,18.658 41.405,21.176 -0.146,1.882 -0.226,3.776 -0.226,5.68 v 17.111 c -5.474,1.343 -10.495,4.158 -14.583,8.246 -5.898,5.899 -9.146,13.738 -9.146,22.073 0,17.22 14.009,31.229 31.229,31.229 h 221.596 c 8.328,0 16.168,-3.246 22.083,-9.147 5.898,-5.898 9.146,-13.741 9.146,-22.083 0,-14.631 -10.12,-26.943 -23.729,-30.31 v -17.12 c 0,-27.152 -15.077,-52.384 -38.721,-65.392 -1.175,-7.282 -2.996,-14.478 -5.504,-21.481 l -7.845,-21.903 v -22.002 c 3.832,-2.176 7.402,-4.869 10.606,-8.069 4.056,-4.061 7.318,-8.704 9.711,-13.737 29.251,-14.006 47.987,-43.579 47.987,-76.176 v -56.23 c 6.113,-1.721 11.787,-4.988 16.458,-9.662 l 23.914,-23.903 c 14.714,-14.726 14.713,-38.678 -0.002,-53.393 z M 242.041,192.87 h -6.651 c -7.6,0 -13.782,-6.183 -13.782,-13.782 0,-7.599 6.183,-13.782 13.782,-13.782 h 1.164 38.906 1.164 c 7.6,0 13.782,6.183 13.782,13.782 0,7.599 -6.183,13.782 -13.782,13.782 h -6.651 c -4.142,0 -7.5,3.358 -7.5,7.5 v 12.636 c 0,3.565 -2.901,6.466 -6.466,6.466 -3.565,0 -6.466,-2.901 -6.466,-6.466 V 200.37 c 0,-4.142 -3.358,-7.5 -7.5,-7.5 z M 267.96,44.26 V 150.305 H 244.054 V 44.26 Z M 91.715,104.175 c -4.298,-4.298 -6.666,-10.013 -6.666,-16.091 0,-6.078 2.367,-11.793 6.666,-16.092 L 142.04,21.667 c 8.874,-8.873 23.311,-8.872 32.183,0 6.179,6.179 8.278,15.49 5.348,23.722 l -26.421,74.229 c -2.632,7.396 -8.776,12.842 -16.435,14.569 -7.656,1.728 -15.544,-0.557 -21.096,-6.108 z m 72.991,111.185 v 44.2 c 0,0.31 0.018,0.616 0.023,0.925 -17.525,-12.914 -28.254,-33.546 -28.254,-55.909 v -55.143 c 1.181,-0.152 2.361,-0.348 3.539,-0.613 12.707,-2.864 22.9,-11.9 27.268,-24.172 l 26.421,-74.23 c 0.623,-1.75 1.104,-3.53 1.456,-5.324 3.549,-0.551 7.145,-0.835 10.745,-0.835 h 23.15 v 106.757 c -8.592,1.938 -15.74,7.724 -19.526,15.451 -25.077,2.176 -44.822,23.267 -44.822,48.893 z M 128.98,480.766 c 0,-4.329 1.688,-8.401 4.753,-11.466 3.065,-3.065 7.141,-4.753 11.477,-4.753 4.142,0 7.5,-3.358 7.5,-7.5 v -23.71 c 0,-18.104 8.393,-35.139 22.149,-46.324 -0.038,13.873 2.287,27.751 6.984,40.96 l 8.267,23.245 c -12.079,4.153 -20.935,15.562 -21.188,28.95 -0.114,6.008 1.526,11.798 4.682,16.827 H 145.21 c -8.95,0 -16.23,-7.28 -16.23,-16.229 z m 153.116,16.229 c -10.25,0 -18.589,-8.339 -18.589,-18.59 v -54.264 c 10.015,-3.186 17.292,-12.573 17.292,-23.629 0,-4.142 -3.358,-7.5 -7.5,-7.5 -4.142,0 -7.5,3.358 -7.5,7.5 0,5.399 -4.393,9.792 -9.792,9.792 -5.399,0 -9.792,-4.393 -9.792,-9.792 0,-4.142 -3.358,-7.5 -7.5,-7.5 -4.142,0 -7.5,3.358 -7.5,7.5 0,11.057 7.277,20.443 17.292,23.629 v 54.264 c 0,10.25 -8.339,18.59 -18.589,18.59 h -29.242 c -4.509,0 -8.926,-1.866 -12.118,-5.12 -3.072,-3.131 -4.719,-7.188 -4.639,-11.423 0.166,-8.772 7.444,-15.909 16.223,-15.909 2.437,0 4.723,-1.184 6.128,-3.176 1.405,-1.992 1.755,-4.541 0.938,-6.837 l -11.232,-31.584 c -8.193,-23.039 -8.165,-48.405 0.08,-71.425 l 5.62,-15.69 c 17.466,6.78 35.895,10.169 54.33,10.169 18.429,0 36.865,-3.39 54.333,-10.167 l 5.619,15.689 c 8.245,23.02 8.273,48.386 0.08,71.425 l -11.232,31.584 c -0.817,2.296 -0.467,4.846 0.938,6.837 1.405,1.991 3.691,3.176 6.128,3.176 8.779,0 16.057,7.137 16.223,15.91 0.08,4.235 -1.567,8.292 -4.639,11.423 -3.192,3.254 -7.609,5.12 -12.118,5.12 h -29.242 z m 77.209,-63.658 v 23.71 c 0,4.142 3.358,7.5 7.5,7.5 8.949,0 16.229,7.276 16.229,16.219 0,4.335 -1.688,8.411 -4.747,11.47 -3.077,3.069 -7.155,4.76 -11.483,4.76 H 338.41 c 3.156,-5.029 4.796,-10.82 4.682,-16.827 -0.254,-13.388 -9.11,-24.798 -21.188,-28.95 l 8.267,-23.245 c 4.697,-13.208 7.022,-27.087 6.984,-40.96 13.757,11.183 22.15,28.219 22.15,46.323 z m -52.07,-112.413 c -32.816,13.434 -69.644,13.434 -102.45,0 v -12.858 c 3.02,0.579 6.134,0.894 9.32,0.894 5.291,0 10.451,-0.841 15.343,-2.434 8.078,4.576 17.18,6.978 26.554,6.978 9.391,0 18.501,-2.407 26.577,-6.99 4.828,1.58 9.976,2.446 15.325,2.446 3.166,0 6.285,-0.304 9.33,-0.883 v 12.847 z m -61.154,-23.721 c 1.015,-0.864 2.008,-1.761 2.961,-2.713 2.681,-2.684 5.015,-5.621 6.981,-8.758 2.706,4.315 6.062,8.18 9.926,11.466 -3.221,0.847 -6.554,1.306 -9.947,1.306 -3.381,0 -6.706,-0.457 -9.921,-1.301 z m 86.224,-37.643 c 0,9.183 -3.579,17.823 -10.07,24.323 -6.506,6.498 -15.147,10.077 -24.33,10.077 -18.968,0 -34.4,-15.432 -34.4,-34.4 0,-4.142 -3.358,-7.5 -7.5,-7.5 -4.142,0 -7.5,3.358 -7.5,7.5 0,9.183 -3.579,17.823 -10.07,24.323 -6.506,6.498 -15.147,10.077 -24.33,10.077 -18.968,0 -34.4,-15.432 -34.4,-34.4 v -44.2 c 0,-16.381 11.619,-30.097 27.05,-33.353 1.44,14.228 13.285,25.428 27.785,25.85 v 5.149 c 0,11.837 9.63,21.466 21.466,21.466 11.836,0 21.466,-9.63 21.466,-21.466 v -5.149 c 14.501,-0.422 26.346,-11.623 27.785,-25.851 15.429,3.254 27.047,16.971 27.047,33.354 v 44.2 z m 14.978,0.933 c 0.006,-0.311 0.023,-0.62 0.023,-0.932 v -44.2 c 0,-25.629 -19.745,-46.72 -44.82,-48.893 -3.786,-7.727 -10.934,-13.512 -19.525,-15.451 V 44.26 h 23.151 c 3.599,0 7.195,0.285 10.744,0.835 0.352,1.793 0.832,3.571 1.454,5.32 l 26.421,74.232 c 4.373,12.276 14.573,21.314 27.285,24.175 1.173,0.264 2.349,0.458 3.524,0.61 v 55.144 c 0,22.368 -10.73,43.002 -28.257,55.917 z"
         inkscape:connector-curvature="0" />
      <ellipse
         id="ellipse4"
         ry="19.412001"
         rx="12.096"
         cy="138.543"
         cx="195.485" />
      <path
         id="path6"
         d="m 316.528,119.131 c -6.67,0 -12.096,8.708 -12.096,19.412 0,10.704 5.426,19.412 12.096,19.412 6.67,0 12.097,-8.708 12.097,-19.412 0,-10.704 -5.427,-19.412 -12.097,-19.412 z"
         inkscape:connector-curvature="0" />
    </g>
  </g>
</svg>
