<?xml version="1.0" encoding="UTF-8" standalone="no"?>
<svg
   xmlns:dc="http://purl.org/dc/elements/1.1/"
   xmlns:cc="http://creativecommons.org/ns#"
   xmlns:rdf="http://www.w3.org/1999/02/22-rdf-syntax-ns#"
   xmlns:svg="http://www.w3.org/2000/svg"
   xmlns="http://www.w3.org/2000/svg"
   xmlns:sodipodi="http://sodipodi.sourceforge.net/DTD/sodipodi-0.dtd"
   xmlns:inkscape="http://www.inkscape.org/namespaces/inkscape"
   id="Capa_1"
   enable-background="new 0 0 512.008 512.008"
   height="52"
   viewBox="0 0 52.000813 52.000813"
   width="52"
   version="1.1"
   sodipodi:docname="doll.svg"
   inkscape:version="0.92.4 (5da689c313, 2019-01-14)">
  <metadata
     id="metadata17">
    <rdf:RDF>
      <cc:Work
         rdf:about="">
        <dc:format>image/svg+xml</dc:format>
        <dc:type
           rdf:resource="http://purl.org/dc/dcmitype/StillImage" />
        <dc:title></dc:title>
      </cc:Work>
    </rdf:RDF>
  </metadata>
  <defs
     id="defs15" />
  <sodipodi:namedview
     pagecolor="#ffffff"
     bordercolor="#666666"
     borderopacity="1"
     objecttolerance="10"
     gridtolerance="10"
     guidetolerance="10"
     inkscape:pageopacity="0"
     inkscape:pageshadow="2"
     inkscape:window-width="1920"
     inkscape:window-height="1017"
     id="namedview13"
     showgrid="false"
     inkscape:zoom="2.6074563"
     inkscape:cx="108.19828"
     inkscape:cy="39.311781"
     inkscape:window-x="-8"
     inkscape:window-y="-8"
     inkscape:window-maximized="1"
     inkscape:current-layer="Capa_1" />
  <g
     id="g829"
     transform="matrix(0.09765625,0,0,0.09765625,1.0427597,1.0000103)">
    <g
       id="g10">
      <path
         id="path2"
         d="m 434.457,274.71 -98.286,-61.329 c 17.837,-15.623 31.09,-36.354 37.447,-59.891 10.656,0.345 20.289,9.626 28.689,27.677 4.407,9.479 10.397,11.207 14.175,11.207 1.253,0 2.263,-0.19 2.89,-0.351 11.554,-2.956 16.81,-21.407 14.799,-51.956 -2.825,-42.936 -36.96,-65.509 -69.26,-72.755 -6.32,-12.653 -14.829,-24.235 -25.256,-34.083 -3.013,-2.845 -7.759,-2.71 -10.603,0.303 -2.844,3.011 -2.708,7.758 0.303,10.602 9.922,9.371 17.788,20.265 23.398,32.183 0.168,0.494 0.388,0.966 0.652,1.412 2.811,6.209 5.017,12.685 6.582,19.365 -43.782,6.849 -84.396,-8.101 -112.311,-41.651 -2.803,-3.387 -5.987,-3.681 -7.638,-3.56 -1.588,0.12 -4.555,0.833 -6.635,4.255 -18.118,29.254 -48.16,44.366 -81.444,41.433 C 162.955,50.316 205.437,15 256.018,15 c 17.271,0 33.744,3.982 48.96,11.836 3.681,1.898 8.205,0.456 10.104,-3.226 1.9,-3.681 0.456,-8.204 -3.225,-10.104 C 294.493,4.544 275.706,0 256.018,0 208.412,0 167.104,27.438 147.071,67.318 c -32.292,7.253 -66.41,29.826 -69.234,72.75 -2.011,30.549 3.245,49 14.799,51.956 0.627,0.16 1.637,0.351 2.891,0.351 3.778,0 9.768,-1.729 14.174,-11.205 8.402,-18.054 18.035,-27.333 28.691,-27.679 6.357,23.535 19.606,44.268 37.445,59.891 L 77.552,274.71 c -10.916,6.809 -16.94,17.595 -16.529,29.594 0.44,12.845 8.057,25.048 19.404,31.088 4.768,2.539 9.886,3.8 15.068,3.8 6.34,0 12.774,-1.888 18.776,-5.635 l 50.373,-31.425 v 31.479 l -64.5,89.22 c -9.014,12.447 -7.964,20.821 -5.497,25.654 2.296,4.497 7.854,9.857 21.297,9.857 h 45.294 l 11.138,28.706 c 2.344,8.555 7.856,15.737 15.562,20.259 5.299,3.109 11.19,4.701 17.157,4.701 2.854,0 5.726,-0.364 8.558,-1.101 17.961,-4.696 28.833,-23.008 24.414,-40.963 l -1.641,-11.603 h 39.156 l -1.641,11.603 c -4.418,17.955 6.453,36.268 24.423,40.966 2.85,0.741 5.711,1.095 8.529,1.095 14.932,0 28.627,-9.944 32.765,-24.953 l 11.124,-28.71 h 45.282 c 13.443,0 19.001,-5.36 21.297,-9.857 2.467,-4.833 3.517,-13.207 -5.494,-25.65 l -64.503,-89.224 v -31.478 l 50.37,31.424 c 6.003,3.748 12.438,5.636 18.779,5.636 5.181,0 10.3,-1.262 15.067,-3.799 11.348,-6.041 18.964,-18.244 19.404,-31.089 0.411,-12 -5.613,-22.786 -16.527,-29.595 z M 419.203,141.052 c 1.314,19.97 -1.035,30.299 -2.921,34.55 -0.121,-0.229 -0.246,-0.482 -0.375,-0.761 -12.317,-26.47 -26.893,-34.94 -39.264,-36.206 0.768,-5.516 1.174,-11.146 1.174,-16.869 0,-6.413 -1.753,-20.556 -1.805,-20.734 -0.951,-5.461 -2.268,-10.844 -3.944,-16.107 18.348,6.315 44.851,21.41 47.135,56.127 z M 135.598,103.241 c -0.927,6.042 -1.407,12.228 -1.407,18.524 0,5.723 0.406,11.353 1.174,16.868 -12.372,1.265 -26.946,9.735 -39.265,36.209 -0.129,0.277 -0.254,0.529 -0.375,0.759 -1.886,-4.25 -4.235,-14.58 -2.921,-34.55 2.282,-34.686 28.74,-49.785 47.086,-56.11 -1.788,5.623 -4.275,18.133 -4.292,18.3 z m 250.687,159.092 -20.857,33.389 -18.105,-11.295 c -0.422,-22.661 -9.274,-44.236 -24.746,-60.714 0.294,-0.193 0.583,-0.392 0.875,-0.587 z M 149.191,121.766 c 0,-3.146 0.145,-6.259 0.413,-9.337 36.692,3.63 70.116,-11.436 91.844,-41.376 15.374,16.466 34.275,28.741 55.093,35.714 13.712,4.593 28.305,6.903 43.195,6.903 7.493,0 15.061,-0.589 22.63,-1.762 0.294,3.256 0.45,6.543 0.45,9.858 0,58.886 -47.91,106.793 -106.799,106.793 -58.903,0 -106.826,-47.908 -106.826,-106.793 z M 106.33,320.831 c -8.115,5.066 -14.731,3.514 -18.854,1.32 -6.6,-3.514 -11.206,-10.892 -11.461,-18.36 -0.16,-4.665 1.354,-11.288 9.477,-16.354 l 27.506,-17.163 20.855,33.388 z m 40.25,-25.109 -20.856,-33.389 62.831,-39.205 c 0.298,0.199 0.599,0.396 0.899,0.592 -15.488,16.49 -24.366,38.065 -24.785,60.719 z m 63.288,200.671 c -4.867,1.266 -9.959,0.547 -14.338,-2.022 -4.381,-2.571 -7.49,-6.669 -8.754,-11.539 -0.073,-0.281 -0.162,-0.558 -0.267,-0.828 l -20.498,-52.83 c -3.89,-10.06 1.975,-21.008 10.461,-26.596 9.089,-5.985 21.434,-5.889 30.36,0.409 4.457,3.145 7.731,7.874 8.5,13.332 l 7.939,56.126 c 0.04,0.282 0.096,0.562 0.168,0.838 2.628,10.098 -3.464,20.467 -13.571,23.11 z m 136.131,-67.225 -20.472,52.838 c -0.103,0.266 -0.19,0.536 -0.262,0.812 -2.646,10.113 -13.019,16.198 -23.115,13.578 -10.116,-2.646 -16.208,-13.015 -13.58,-23.114 0.072,-0.276 0.128,-0.556 0.168,-0.838 l 7.94,-56.131 c 0.769,-5.461 3.98,-10.323 9.04,-13.69 7.145,-4.756 16.551,-5.813 24.567,-2.744 7.004,2.681 12.974,8.368 15.608,15.437 1.656,4.445 1.829,9.397 0.106,13.852 z m 53.716,2.459 c 4.537,6.267 4.531,9.558 4.287,10.037 -0.17,0.333 -2.117,1.678 -7.938,1.678 h -39.47 l 3.394,-8.759 c 3.553,-9.188 2.895,-19.352 -1.853,-28.616 -5.37,-10.479 -15.394,-18.511 -26.804,-21.482 -11.427,-2.994 -24.109,-0.883 -33.925,5.65 -8.674,5.772 -14.208,14.326 -15.582,24.081 l -4.12,29.126 h -43.4 l -4.119,-29.121 c -1.852,-13.146 -11.507,-23.625 -23.711,-28.264 -12.675,-4.818 -27.117,-3.312 -38.411,4.219 -5.948,3.966 -10.926,9.42 -14.19,15.791 -4.748,9.265 -5.406,19.428 -1.85,28.624 l 3.395,8.751 h -39.474 c -5.821,0 -7.768,-1.345 -7.938,-1.678 -0.245,-0.479 -0.25,-3.771 4.29,-10.041 l 63.68,-88.085 h 62.688 c 4.142,0 7.5,-3.357 7.5,-7.5 0,-4.143 -3.358,-7.5 -7.5,-7.5 h -59.021 v -42.419 c 0,-20.642 8.442,-40.325 23.311,-54.734 16.049,7.796 34.054,12.174 53.063,12.174 19.008,0 37.011,-4.38 53.058,-12.178 14.854,14.397 23.287,34.081 23.287,54.738 v 42.419 H 273.57 c -4.142,0 -7.5,3.357 -7.5,7.5 0,4.143 3.358,7.5 7.5,7.5 h 62.461 z M 435.993,303.79 c -0.256,7.47 -4.862,14.848 -11.461,18.361 -4.122,2.193 -10.738,3.747 -18.855,-1.321 l -27.521,-17.169 20.856,-33.388 27.506,17.164 c 8.121,5.066 9.635,11.689 9.475,16.353 z"
         inkscape:connector-curvature="0" />
      <path
         id="path4"
         d="m 297.587,150.129 c 4.142,0 7.5,-3.357 7.5,-7.5 v -10.914 c 0,-4.143 -3.358,-7.5 -7.5,-7.5 -4.142,0 -7.5,3.357 -7.5,7.5 v 10.914 c 0,4.142 3.358,7.5 7.5,7.5 z"
         inkscape:connector-curvature="0" />
      <path
         id="path6"
         d="m 214.422,150.129 c 4.142,0 7.5,-3.357 7.5,-7.5 v -10.914 c 0,-4.143 -3.358,-7.5 -7.5,-7.5 -4.142,0 -7.5,3.357 -7.5,7.5 v 10.914 c 0,4.142 3.358,7.5 7.5,7.5 z"
         inkscape:connector-curvature="0" />
      <path
         id="path8"
         d="m 223.715,186.229 c 9.053,7.104 20.671,10.655 32.29,10.655 11.619,0 23.236,-3.552 32.29,-10.655 3.259,-2.557 3.828,-7.271 1.271,-10.53 -2.557,-3.259 -7.271,-3.826 -10.53,-1.271 -12.484,9.795 -33.577,9.795 -46.062,0 -3.258,-2.557 -7.973,-1.989 -10.53,1.271 -2.558,3.259 -1.988,7.974 1.271,10.53 z"
         inkscape:connector-curvature="0" />
    </g>
  </g>
</svg>
