<?xml version="1.0" encoding="UTF-8" standalone="no"?>
<svg
   xmlns:dc="http://purl.org/dc/elements/1.1/"
   xmlns:cc="http://creativecommons.org/ns#"
   xmlns:rdf="http://www.w3.org/1999/02/22-rdf-syntax-ns#"
   xmlns:svg="http://www.w3.org/2000/svg"
   xmlns="http://www.w3.org/2000/svg"
   xmlns:sodipodi="http://sodipodi.sourceforge.net/DTD/sodipodi-0.dtd"
   xmlns:inkscape="http://www.inkscape.org/namespaces/inkscape"
   id="Layer_1"
   height="52"
   viewBox="0 0 52 52"
   width="52"
   data-name="Layer 1"
   version="1.1"
   sodipodi:docname="dragon.svg"
   inkscape:version="0.92.4 (5da689c313, 2019-01-14)">
  <metadata
     id="metadata33">
    <rdf:RDF>
      <cc:Work
         rdf:about="">
        <dc:format>image/svg+xml</dc:format>
        <dc:type
           rdf:resource="http://purl.org/dc/dcmitype/StillImage" />
        <dc:title></dc:title>
      </cc:Work>
    </rdf:RDF>
  </metadata>
  <defs
     id="defs31" />
  <sodipodi:namedview
     pagecolor="#ffffff"
     bordercolor="#666666"
     borderopacity="1"
     objecttolerance="10"
     gridtolerance="10"
     guidetolerance="10"
     inkscape:pageopacity="0"
     inkscape:pageshadow="2"
     inkscape:window-width="1920"
     inkscape:window-height="1017"
     id="namedview29"
     showgrid="false"
     inkscape:zoom="7.375"
     inkscape:cx="44.670364"
     inkscape:cy="33.435243"
     inkscape:window-x="-8"
     inkscape:window-y="-8"
     inkscape:window-maximized="1"
     inkscape:current-layer="Layer_1" />
  <g
     id="g856"
     transform="matrix(0.10204086,0,0,0.10204086,-0.12247294,0.01947)">
    <path
       id="path2"
       d="m 348.351,132.311 a 4.99,4.99 0 0 0 -5.6,4.322 c -4.742,36.883 -48.124,86.419 -73.561,112.664 a 5.000209,5.000209 0 0 0 7.181,6.96 c 58.206,-60.056 73.618,-97.507 76.3,-118.349 a 5,5 0 0 0 -4.32,-5.597 z"
       inkscape:connector-curvature="0" />
    <path
       id="path4"
       d="m 360.317,153.12 a 5,5 0 1 0 -1.627,9.866 c 47.117,7.773 57.171,46.635 57.577,48.285 a 5,5 0 0 0 9.721,-2.343 C 425.53,207.016 414.15,162 360.317,153.12 Z"
       inkscape:connector-curvature="0" />
    <path
       id="path6"
       d="m 336.591,206.569 a 5,5 0 0 0 -2.549,6.595 c 14.682,33.2 -0.024,78.519 -0.174,78.973 a 5.000197,5.000197 0 0 0 9.491,3.151 c 0.664,-2 16.089,-49.4 -0.173,-86.168 a 5,5 0 0 0 -6.595,-2.551 z"
       inkscape:connector-curvature="0" />
    <path
       id="path8"
       d="M 52.14,57.406 C 32.1,77.411 42.114,104.111 42.55,105.238 a 5.0002225,5.0002225 0 0 0 9.33,-3.6 C 51.545,100.755 43.837,79.816 59.204,64.479 A 5,5 0 1 0 52.14,57.402 Z"
       inkscape:connector-curvature="0" />
    <path
       id="path10"
       d="m 134.489,114.355 a 5,5 0 0 0 -2.07,-6.761 c -1.48,-0.786 -36.544,-19.125 -64.7,-8.859 a 5,5 0 0 0 3.424,9.395 c 23.908,-8.715 56.143,8.061 56.587,8.3 a 5,5 0 0 0 6.761,-2.07 z"
       inkscape:connector-curvature="0" />
    <path
       id="path12"
       d="m 384.772,317.242 a 161.814,161.814 0 0 0 -6.884,26.416 5.0000656,5.0000656 0 1 0 9.849,1.732 151.737,151.737 0 0 1 6.449,-24.777 5,5 0 0 0 -9.414,-3.371 z"
       inkscape:connector-curvature="0" />
    <path
       id="path14"
       d="m 402.071,284.875 c -1.491,1.947 -2.946,3.992 -4.324,6.08 a 5,5 0 1 0 8.343,5.51 c 1.251,-1.893 2.57,-3.748 3.92,-5.51 a 5,5 0 1 0 -7.939,-6.08 z"
       inkscape:connector-curvature="0" />
    <path
       id="path16"
       d="m 422.4,277.743 a 85.73,85.73 0 0 1 29.44,-16.72 68.027,68.027 0 0 1 16.42,-3.454 5.0009408,5.0009408 0 0 0 -0.194,-10 c -0.061,0 -0.124,0 -0.187,0 a 76.328,76.328 0 0 0 -19.158,3.946 95.684,95.684 0 0 0 -32.877,18.669 5,5 0 0 0 6.556,7.551 z"
       inkscape:connector-curvature="0" />
    <path
       id="path18"
       d="m 231.91,199.45 a 5,5 0 0 0 5.5,-8.351 123,123 0 0 1 -31.529,-29.356 5,5 0 0 0 -8.038,5.947 132.951,132.951 0 0 0 34.067,31.76 z"
       inkscape:connector-curvature="0" />
    <path
       id="path20"
       d="m 181.466,117.715 a 5,5 0 0 0 -3.766,5.985 118.632,118.632 0 0 0 8.167,23.888 5,5 0 0 0 9.06,-4.232 108.577,108.577 0 0 1 -7.475,-21.871 5,5 0 0 0 -5.986,-3.77 z"
       inkscape:connector-curvature="0" />
    <path
       id="path22"
       d="m 179.545,97.614 h 0.181 a 5,5 0 0 0 4.994,-4.814 75.644,75.644 0 0 1 1.043,-10.756 5,5 0 0 0 -9.8,-1.976 83.053,83.053 0 0 0 -1.234,12.374 5,5 0 0 0 4.816,5.172 z"
       inkscape:connector-curvature="0" />
    <path
       id="path24"
       d="m 403.894,112.763 a 294.868,294.868 0 0 0 -72.758,4.015 5,5 0 0 0 -3.973,4.264 c -2.036,15.831 -14.3,51.52 -73.559,112.665 -3.975,4.1 -7.185,10.359 -10.582,16.984 -4.447,8.671 -9.989,19.461 -15,18.39 a 118.887,118.887 0 0 0 -26.943,-2.373 c -12.972,-32.212 6.595,-57.2 7.469,-58.286 a 5,5 0 0 0 -1.134,-7.324 c -26.878,-17.7 -43.741,-41.363 -50.121,-70.332 -4.794,-21.761 -1.558,-38.56 -1.527,-38.719 a 5,5 0 0 0 -4.182,-5.939 C 115.284,80.838 91.266,69.084 82.135,52.116 73.42,35.916 80.621,20.199 80.923,19.555 a 5,5 0 0 0 -5.794,-6.994 c -25.245,6.717 -43.384,19.385 -53.917,37.652 -16.447,28.524 -8.176,60.072 -7.816,61.4 a 5,5 0 0 0 2.771,3.251 c 43.177,19.46 71.728,56.65 88.075,84.422 A 291.784,291.784 0 0 1 127.7,249.56 c -0.454,-0.108 -0.9,-0.217 -1.361,-0.324 a 89.05,89.05 0 0 0 -19.589,-2.39 c 1.066,-3.362 1.769,-5.759 1.852,-6.042 a 5,5 0 0 0 -4.8,-6.4 37.008,37.008 0 0 0 -10.752,1.52 103.479,103.479 0 0 0 -1.385,-17.8 5,5 0 0 0 -7.41,-3.464 C 55.4,231.2 51.958,279.418 51.826,281.463 c 0,0.046 -0.005,0.091 -0.006,0.136 l -1.136,30.31 -0.008,0.3 a 10.754,10.754 0 0 0 8.873,10.912 l 13.305,2.419 a 5,5 0 0 0 5.113,-2.235 l 7.311,-11.49 c 4.732,-2.159 18.195,-9.476 22.534,-24.282 10.593,-0.136 25.225,1.436 39.57,8.729 a 131.256,131.256 0 0 0 7.612,27.5 c 5.651,13.9 13.275,24.5 22.685,31.582 l -11.328,32.693 a 15.715,15.715 0 0 0 2.527,14.947 l 7.6,9.621 a 15.692,15.692 0 0 0 12.386,6 5.769,5.769 0 0 1 5.313,3.508 18.769,18.769 0 0 0 -9.177,16.208 v 12.631 a 5,5 0 0 0 3.673,4.821 l 10.827,2.977 a 5,5 0 0 0 6.181,-3.628 l 1.169,-4.759 a 8.874,8.874 0 0 1 3.349,-5 l -1.214,12.924 a 5,5 0 0 0 2.959,5.042 l 10.748,4.742 a 5,5 0 0 0 6.794,-3.094 l 0.758,-2.443 a 89.648,89.648 0 0 0 8.818,9.964 c 13.115,12.766 36.228,27.111 73.851,27.111 q 5.324,0 11.05,-0.4 c 15.019,-0.019 32.284,-3.97 48.064,-17.114 L 388,470.675 a 5.062,5.062 0 0 0 0.554,-0.46 l 5.557,-5.329 A 50.386,50.386 0 0 0 409.63,430.72 l 1.039,-22.386 a 5,5 0 0 0 -8.36,-3.93 l -17.565,15.983 a 50.491,50.491 0 0 0 -16.31,32.563 l -0.575,5.957 c -18.745,20.018 -53.382,13.025 -53.649,12.97 -27.311,-6.3 -31.352,-34.519 -31.711,-37.584 0.6,-61.693 -10.445,-85.172 -16.587,-93.432 12.352,-13.934 29.935,-21.87 52.334,-23.6 a 119.711,119.711 0 0 1 33.387,2.127 5,5 0 0 0 6.106,-3.992 c 6.223,-35.375 21.623,-60.889 45.774,-75.832 18.052,-11.17 34.581,-11.982 34.735,-11.989 a 5,5 0 0 0 4.807,-4.719 c 0.936,-16.86 6.281,-29.314 15.886,-37.017 15.045,-12.066 36.021,-8.772 36.223,-8.738 a 5,5 0 0 0 5.538,-6.63 C 488.477,136.67 455,116.716 403.894,112.763 Z M 113,194.453 C 82.948,143.288 47.65,118.6 22.557,106.8 21.126,99.621 17.797,76.156 29.875,55.21 37.787,41.484 50.883,31.331 68.868,24.95 a 47.153,47.153 0 0 0 4.374,31.75 c 10.344,19.4 34.549,32.361 71.981,38.545 a 119.667,119.667 0 0 0 2.2,37.221 c 4.541,21 16.98,50.523 50.262,74.1 -5.866,9.353 -17.064,32.447 -7.083,60.733 -4.807,0.444 -8.544,1.029 -10.676,1.408 a 159.387,159.387 0 0 0 -23.535,-10.574 4.942,4.942 0 0 0 -0.159,-2.31 c -0.379,-1.178 -9.362,-29 -15.652,-43.559 a 5,5 0 1 0 -9.179,3.966 c 4.623,10.7 10.982,29.522 13.829,38.13 -1.935,-0.6 -3.921,-1.2 -6.01,-1.8 -1.282,-4.26 -9.094,-28.951 -26.22,-58.107 z m 75.861,214.152 a 5.75,5.75 0 0 1 -4.539,-2.2 l -7.6,-9.621 a 5.755,5.755 0 0 1 -0.926,-5.477 l 10.47,-30.207 c 2.9,1.928 5.442,3.67 7.568,5.15 a 21.344,21.344 0 0 0 -6.86,18.486 l 1.362,10.63 a 21.411,21.411 0 0 0 12.754,16.889 l 0.365,0.155 a 11.311,11.311 0 0 1 6.069,6.239 l -3.717,0.572 -0.384,-0.92 a 15.741,15.741 0 0 0 -14.561,-9.696 z m 32.729,48.05 -2.317,-1.023 0.931,-9.905 c 0.753,1.691 1.724,3.69 2.941,5.907 z m 24.8,9.019 a 78.9,78.9 0 0 1 -15.935,-21.683 l 1.837,0.05 a 5.024,5.024 0 0 0 5.074,-4.231 l 1.443,-9.3 c 5.9,15.848 16.6,36.99 35.031,52.511 A 81.088,81.088 0 0 1 246.39,465.674 Z M 488.169,166.637 c -9.01,0 -23.421,1.768 -35.4,11.333 -11.093,8.855 -17.6,22.321 -19.365,40.063 a 92.926,92.926 0 0 0 -34.67,12.73 c -17.875,10.916 -40.713,33.232 -49.887,77.9 a 133.228,133.228 0 0 0 -31.061,-1.395 c -26.757,2 -48.348,12.61 -62.437,30.672 a 4.877,4.877 0 0 0 -1.124,3.905 4.621,4.621 0 0 0 2.13,3.225 c 1.165,1.072 16.892,16.981 16.145,89.42 a 4.842,4.842 0 0 0 0.023,0.525 62.07,62.07 0 0 0 6.2,20.094 c 7.053,13.956 18.546,23.125 33.321,26.534 1.71,0.362 42.054,8.594 64.42,-17.352 a 4.991,4.991 0 0 0 1.189,-2.784 l 0.733,-7.593 a 40.515,40.515 0 0 1 13.087,-26.127 l 8.647,-7.868 -0.479,10.341 a 40.429,40.429 0 0 1 -12.452,27.413 l -5.3,5.079 -15.836,11.311 c -0.1,0.074 -0.206,0.153 -0.3,0.235 -32.3,27.04 -73.681,8.86 -77.02,7.319 -34.336,-21.969 -44.978,-67.809 -46.329,-74.29 l 1.658,-10.686 a 5,5 0 1 0 -9.88,-1.533 l -6.024,38.823 -12.174,-0.326 a 19.018,19.018 0 0 0 -18.793,14.146 l -2.2,-0.605 v -8.821 a 8.842,8.842 0 0 1 7.54,-8.786 l 11.54,-1.776 a 5,5 0 0 0 4.239,-4.942 21.3,21.3 0 0 0 -12.927,-19.6 l -0.364,-0.155 a 11.367,11.367 0 0 1 -6.77,-8.967 l -1.364,-10.63 a 11.36,11.36 0 0 1 9.011,-12.542 l 17.145,-3.429 a 11.34,11.34 0 0 1 10.007,2.882 l 10.9,10.33 a 5,5 0 1 0 6.877,-7.259 l -10.9,-10.33 a 21.346,21.346 0 0 0 -18.845,-5.428 l -17.145,3.429 -1.378,-0.966 c -3.628,-2.545 -9.11,-6.391 -16.231,-10.949 -16.226,-10.385 -23.833,-31.395 -27.24,-45.517 a 74.186,74.186 0 0 1 6.545,5.72 5.0001261,5.0001261 0 0 0 7.012,-7.13 C 137.902,268.112 91.753,278.928 89.808,279.405 a 5,5 0 0 0 2.37,9.714 c 0.083,-0.019 1.756,-0.406 4.615,-0.793 -5.066,10.274 -16.536,14.769 -16.66,14.817 a 4.994,4.994 0 0 0 -2.466,2 l -6.338,9.96 -10,-1.818 a 0.805,0.805 0 0 1 -0.666,-0.812 l 1.136,-30.416 c 0.121,-1.656 2.933,-36.994 20.994,-53.93 a 65.443,65.443 0 0 1 -0.151,13.332 34.736,34.736 0 0 0 -9.634,13.241 53.7,53.7 0 0 0 -4.156,19.271 5,5 0 0 0 4.988,4.994 h 0.012 a 5,5 0 0 0 5,-4.982 c 0,-1.079 0.338,-23.835 17.894,-28.678 -2.2,6.814 -5.261,15.553 -7.542,19.545 a 5,5 0 1 0 8.681,4.962 91.031,91.031 0 0 0 5.488,-12.914 76.868,76.868 0 0 1 20.7,2.079 c 34.175,7.947 52.077,19.105 52.247,19.212 a 5.006,5.006 0 0 0 3.731,0.672 c 0.229,-0.049 23.206,-4.851 45.878,0 12.522,2.682 19.674,-11.286 25.991,-23.6 2.914,-5.682 5.927,-11.557 8.865,-14.588 54.947,-56.694 71.758,-93.244 75.721,-114.693 9.435,-1.581 37.186,-5.545 66.814,-3.225 43.526,3.406 72.033,18.16 84.885,43.889 z"
       inkscape:connector-curvature="0" />
    <circle
       id="circle26"
       r="5.5"
       cy="293.711"
       cx="69.429001" />
  </g>
</svg>
