<?xml version="1.0" encoding="UTF-8" standalone="no"?>
<svg
   xmlns:dc="http://purl.org/dc/elements/1.1/"
   xmlns:cc="http://creativecommons.org/ns#"
   xmlns:rdf="http://www.w3.org/1999/02/22-rdf-syntax-ns#"
   xmlns:svg="http://www.w3.org/2000/svg"
   xmlns="http://www.w3.org/2000/svg"
   xmlns:sodipodi="http://sodipodi.sourceforge.net/DTD/sodipodi-0.dtd"
   xmlns:inkscape="http://www.inkscape.org/namespaces/inkscape"
   viewBox="0 -28 52.000002 52"
   version="1.1"
   id="svg4"
   sodipodi:docname="heart.svg"
   width="52"
   height="52"
   inkscape:version="0.92.4 (5da689c313, 2019-01-14)">
  <metadata
     id="metadata10">
    <rdf:RDF>
      <cc:Work
         rdf:about="">
        <dc:format>image/svg+xml</dc:format>
        <dc:type
           rdf:resource="http://purl.org/dc/dcmitype/StillImage" />
        <dc:title></dc:title>
      </cc:Work>
    </rdf:RDF>
  </metadata>
  <defs
     id="defs8" />
  <sodipodi:namedview
     pagecolor="#ffffff"
     bordercolor="#666666"
     borderopacity="1"
     objecttolerance="10"
     gridtolerance="10"
     guidetolerance="10"
     inkscape:pageopacity="0"
     inkscape:pageshadow="2"
     inkscape:window-width="1920"
     inkscape:window-height="1017"
     id="namedview6"
     showgrid="false"
     inkscape:zoom="3.6875"
     inkscape:cx="4.4536021"
     inkscape:cy="15.119837"
     inkscape:window-x="-8"
     inkscape:window-y="-8"
     inkscape:window-maximized="1"
     inkscape:current-layer="svg4" />
  <path
     d="m 47.033478,-20.13061 c -2.588272,-2.80724 -6.139755,-4.35333 -10.000992,-4.35333 -2.8862,0 -5.529404,0.91247 -7.856369,2.71187 -1.174164,0.90827 -2.238083,2.0195 -3.176117,3.31649 -0.937653,-1.29661 -2.001953,-2.40822 -3.176498,-3.31649 -2.326584,-1.7994 -4.969788,-2.71187 -7.855988,-2.71187 -3.861237,0 -7.4131011,1.54609 -10.0013733,4.35333 C 2.4087677,-17.35618 1,-13.5659 1,-9.45747 1,-5.22888 2.5758515,-1.3581 5.9591064,2.72439 8.9856873,6.3762 13.335587,10.08332 18.372894,14.376 c 1.720047,1.46598 3.669739,3.12767 5.694199,4.89769 C 24.601913,19.74213 25.288178,20 26,20 c 0.711441,0 1.398087,-0.25787 1.932144,-0.72555 2.02446,-1.7704 3.975296,-3.43285 5.696106,-4.8996 C 38.664795,10.08294 43.014694,6.3762 46.041275,2.724 49.42453,-1.3581 51,-5.22888 51,-9.45785 c 0,-4.10805 -1.408768,-7.89833 -3.966522,-10.67276 z m 0,0"
     id="path2"
     inkscape:connector-curvature="0"
     style="stroke-width:0.09765625" />
</svg>
