<?xml version="1.0" encoding="UTF-8" standalone="no"?>
<svg
   xmlns:dc="http://purl.org/dc/elements/1.1/"
   xmlns:cc="http://creativecommons.org/ns#"
   xmlns:rdf="http://www.w3.org/1999/02/22-rdf-syntax-ns#"
   xmlns:svg="http://www.w3.org/2000/svg"
   xmlns="http://www.w3.org/2000/svg"
   xmlns:sodipodi="http://sodipodi.sourceforge.net/DTD/sodipodi-0.dtd"
   xmlns:inkscape="http://www.inkscape.org/namespaces/inkscape"
   id="Layer_1"
   height="52"
   viewBox="0 0 52 52"
   width="52"
   data-name="Layer 1"
   version="1.1"
   sodipodi:docname="horse.svg"
   inkscape:version="0.92.4 (5da689c313, 2019-01-14)">
  <metadata
     id="metadata9">
    <rdf:RDF>
      <cc:Work
         rdf:about="">
        <dc:format>image/svg+xml</dc:format>
        <dc:type
           rdf:resource="http://purl.org/dc/dcmitype/StillImage" />
        <dc:title></dc:title>
      </cc:Work>
    </rdf:RDF>
  </metadata>
  <defs
     id="defs7" />
  <sodipodi:namedview
     pagecolor="#ffffff"
     bordercolor="#666666"
     borderopacity="1"
     objecttolerance="10"
     gridtolerance="10"
     guidetolerance="10"
     inkscape:pageopacity="0"
     inkscape:pageshadow="2"
     inkscape:window-width="1920"
     inkscape:window-height="1017"
     id="namedview5"
     showgrid="false"
     inkscape:zoom="5.2149125"
     inkscape:cx="36.546694"
     inkscape:cy="59.121051"
     inkscape:window-x="-8"
     inkscape:window-y="-8"
     inkscape:window-maximized="1"
     inkscape:current-layer="Layer_1" />
  <path
     d="m 50.392461,34.59098 c -2.113861,0.0353 -4.436388,-1.14234 -5.985204,-2.11157 a 7.0461684,7.0461684 0 0 0 3.236378,-1.13836 0.59761404,0.59761404 0 0 0 -0.60359,-1.0259 c -0.154483,0.0726 -0.639746,0.18825 -1.805591,-0.30249 a 7.789899,7.789899 0 0 1 -3.352117,-2.76895 c -2.529899,-3.64275 -5.439981,-3.60959 -6.586005,-3.42283 a 5.8466574,5.8466574 0 0 0 -0.729787,-0.96196 c -0.894628,-0.95618 -2.58488,-2.11078 -5.55781,-2.1799 A 20.959121,20.959121 0 0 1 26.107319,20.43998 2.3306948,2.3306948 0 0 1 24.18081,18.33139 C 24.015171,16.41106 23.388971,15.03266 22.737572,14.09003 A 0.59761404,0.59761404 0 0 0 23.394151,13.2944 C 22.693548,11.38284 21.046125,9.95374 19.732171,9.06618 a 0.59761404,0.59761404 0 0 0 0.276496,-0.9747 C 17.458847,5.27134 13.56589,5.39166 12.118767,5.55092 11.657111,4.40958 10.293754,3.5775 10.114968,3.47212 A 0.59761404,0.59761404 0 0 0 9.2280089,4.11575 l 0.119523,0.54094 -0.356178,-0.21215 a 0.59761404,0.59761404 0 0 0 -0.801102,0.84791 c 0.187452,0.27759 0.243926,1.33178 0.18795,2.23936 -1.079192,1.0781 -2.138861,4.18937 -2.4461344,5.14366 -0.7132523,0.71286 -1.3072807,2.08717 -0.2562768,3.31318 a 2.4402573,2.4402573 0 0 0 2.1708332,0.86574 1.7940374,1.7940374 0 0 0 1.257878,-0.71714 1.840452,1.840452 0 0 0 0.215639,-0.39841 C 10.027317,15.57779 11.476233,15.07838 12.25841,13.60735 a 2.0331826,2.0331826 0 0 1 0.447214,0.68467 c 0.385561,0.95917 0.165241,2.34643 -0.637455,4.01188 -1.51027,3.13519 -1.831388,5.15174 -1.834774,6.29129 a 0.36105848,0.36105848 0 0 1 -0.3158391,0.3504 c -0.779488,0.10657 -2.132088,-0.20658 -3.844651,-0.6032 l -0.01624,-0.004 c -0.8680342,-0.2011 -1.6275021,-0.0918 -2.2573873,0.3248 -1.065745,0.70489 -1.31246,2.03956 -1.3225198,2.09603 a 0.61066195,0.61066195 0 0 0 -0.00817,0.13676 c 9.96e-4,0.0179 0.083965,1.8019 -0.8452255,2.68299 -0.80976697,0.76783 -0.83128107,2.11017 -0.060558,3.77971 a 3.8101879,3.8101879 0 0 1 0.3099625,1.01375 L 2.165,36.2579 a 0.936262,0.936262 0 0 0 0.9229153,0.79403 q 0.045419,0 0.091435,-0.004 c 0.7038897,-0.0689 1.276902,-0.39194 1.6135579,-0.90947 0.4499037,-0.69134 0.4651429,-1.68557 0.045319,-2.9549 A 1.5750118,1.5750118 0 0 0 4.2207001,32.36985 0.36075968,0.36075968 0 0 1 4.0653205,31.99683 C 4.2009789,31.329 4.6236912,29.51674 5.3832586,28.49332 a 2.5568917,2.5568917 0 0 0 0.023108,1.09354 c 0.029881,0.13556 -0.1213157,0.59532 -0.221416,0.89951 -0.3078708,0.93626 -0.7731134,2.35061 0.169324,3.50938 0.4630512,0.56963 0.6304828,1.09563 0.7924363,1.605 0.209762,0.65926 0.426597,1.34094 1.228595,1.83726 a 0.59761404,0.59761404 0 0 0 0.648112,-0.0124 c 0.950206,-0.63935 1.455987,-1.39573 1.503298,-2.24822 0.07112,-1.2792 -0.927298,-2.32582 -1.528796,-2.83598 a 0.44572047,0.44572047 0 0 1 -0.144523,-0.24263 c -0.247114,-1.07142 -0.170719,-1.8787 0.227292,-2.39952 0.412653,-0.53995 1.090746,-0.64433 1.277301,-0.66325 a 9.5157088,9.5157088 0 0 0 6.0743481,-0.43825 c 0.719428,1.21793 2.949624,3.99016 8.428649,4.24306 0.242731,1.22749 0.877795,2.63229 2.278005,4.01028 a 10.648287,10.648287 0 0 1 0.907975,1.46416 c 0.535064,1.0507 0.726499,1.92063 0.553889,2.51565 -0.121814,0.41933 -0.442832,0.71764 -0.981681,0.91176 -1.220627,0.43985 -1.786268,1.06117 -2.262069,1.62482 a 6.230226,6.230226 0 0 0 -1.466843,0.14671 c -1.319333,0.30279 -2.206591,1.03826 -2.565856,2.12701 a 0.59761404,0.59761404 0 0 0 0.378489,0.75419 l -0.445024,0.57929 a 0.59761404,0.59761404 0 0 0 -0.0488,0.65379 C 20.521923,48.19282 21.317547,49 22.477615,49 a 2.9993253,2.9993253 0 0 0 1.306384,-0.32191 0.59761404,0.59761404 0 0 0 0.285361,-0.29214 l 0.632575,-1.39861 1.448716,-0.32391 a 0.59761404,0.59761404 0 0 0 0.377393,-0.26813 c 0.47082,-0.75867 1.999616,-2.78468 3.401918,-3.04554 1.298316,-0.24134 2.193044,-0.81594 2.587669,-1.66157 0.246615,-0.52869 0.398409,-1.40997 -0.276297,-2.60629 -0.872318,-1.54563 -0.260361,-3.37084 0.221914,-3.69525 0.05976,-0.0398 0.151495,-0.0952 0.257571,-0.15886 1.140148,-0.68397 4.105011,-2.46287 4.282901,-7.34747 0.0022,10e-4 0.0043,0.002 0.0065,0.003 0.180778,0.0989 0.785663,0.6261 0.983175,3.25341 0.163049,2.16973 0.949609,3.75032 2.337766,4.69754 2.089857,1.42621 5.441675,1.40151 10.24699,-0.0752 A 0.59761404,0.59761404 0 0 0 50.39299,34.59034 Z M 8.3330819,35.1111 c -0.01992,0.36375 -0.231177,0.71893 -0.628192,1.05937 -0.184763,-0.21653 -0.281477,-0.49801 -0.419525,-0.93208 -0.177293,-0.55777 -0.39841,-1.2512 -1.003992,-1.99653 -0.4919359,-0.60518 -0.2941257,-1.36903 0.03904,-2.38199 0.199205,-0.60488 0.37082,-1.1273 0.235659,-1.59981 -0.08237,-0.28835 0.02988,-0.80598 0.186356,-1.26196 a 9.9971865,9.9971865 0 0 0 0.913453,0.45578 2.6924505,2.6924505 0 0 0 -0.513151,0.50409 c -0.634666,0.81803 -0.787456,1.96515 -0.454286,3.40949 a 1.6315859,1.6315859 0 0 0 0.536159,0.88556 c 0.271417,0.23028 1.153694,1.04463 1.108475,1.85808 z M 41.004641,34.84765 c -1.088056,-0.74243 -1.683279,-1.98537 -1.819635,-3.79993 -0.179284,-2.38348 -0.719029,-3.76984 -1.65061,-4.23827 a 1.5002105,1.5002105 0 0 0 -1.439752,0.0482 0.59761404,0.59761404 0 0 0 -0.278089,0.50797 c 0.01932,4.60004 -2.594542,6.16808 -3.710686,6.83771 -0.120518,0.0723 -0.224603,0.13476 -0.310161,0.19233 -0.545721,0.36743 -0.97949,1.20041 -1.131981,2.17382 a 4.8132831,4.8132831 0 0 0 0.536658,3.10062 c 0.341536,0.60508 0.420222,1.11425 0.233966,1.51346 -0.221217,0.4741 -0.833174,0.8267 -1.723121,0.99194 -0.949011,0.17649 -1.949517,0.84413 -2.973827,1.98437 a 13.107668,13.107668 0 0 0 -1.08447,1.39085 l -1.503199,0.33596 a 0.59761404,0.59761404 0 0 0 -0.414146,0.33695 l -0.660264,1.45988 c -0.796819,0.3005 -1.318735,-0.0409 -1.596626,-0.33556 l 0.711161,-0.92631 A 0.59761404,0.59761404 0 0 0 21.875912,45.4818 L 21.76635,45.4519 c 0.297811,-0.36485 0.753989,-0.62142 1.363456,-0.76575 a 4.9964518,4.9964518 0 0 1 1.434274,-0.11285 0.59691683,0.59691683 0 0 0 0.514645,-0.20787 l 0.116236,-0.13785 c 0.45329,-0.53964 0.844827,-1.00598 1.828599,-1.36017 1.135467,-0.40906 1.564355,-1.1519 1.724316,-1.7032 0.595523,-2.0518 -1.4526,-4.77244 -1.68806,-5.07593 a 0.59313194,0.59313194 0 0 0 -0.05488,-0.0614 c -3.164964,-3.08767 -1.784277,-6.26837 -1.725013,-6.39994 a 0.59774178,0.59774178 0 1 0 -1.085666,-0.50051 6.2111023,6.2111023 0 0 0 -0.46066,2.50939 C 21.335371,31.49309 19.31434,30.79149 17.860943,29.5871 a 6.3993508,6.3993508 0 0 1 -1.348715,-1.51794 12.174294,12.174294 0 0 0 1.899516,-1.328 0.59761404,0.59761404 0 1 0 -0.771719,-0.91266 c -2.076709,1.75599 -4.342064,2.52263 -6.732421,2.27811 A 9.1666026,9.1666026 0 0 1 7.0928339,26.81576 1.4334769,1.4334769 0 0 0 5.9629453,26.64415 c -0.9796886,0.26394 -2.3072882,1.36534 -3.0686485,5.11428 a 1.5514061,1.5514061 0 0 0 0.66375,1.60628 0.37530162,0.37530162 0 0 1 0.1458178,0.19423 c 0.2916356,0.88178 0.3228112,1.56634 0.08765,1.9277 A 0.81942845,0.81942845 0 0 1 3.3060528,35.81433 L 3.0547561,34.19022 A 5.0112926,5.0112926 0 0 0 2.6488766,32.85843 C 2.4527596,32.43363 1.8586316,31.00444 2.4465842,30.44686 3.6498801,29.30582 3.6763743,27.35919 3.6660157,26.91745 3.7141237,26.71885 3.9188064,26.01426 4.4649261,25.65709 4.8144307,25.4285 5.2471033,25.3782 5.7877448,25.5034 l 0.016335,0.004 c 1.9037991,0.44094 3.2794071,0.75927 4.2763272,0.62292 a 1.5615655,1.5615655 0 0 0 1.349014,-1.53099 c 0.0025,-0.83168 0.229085,-2.68807 1.716447,-5.77614 0.965644,-2.0046 1.190746,-3.67881 0.669228,-4.97633 a 3.0665569,3.0665569 0 0 0 -1.616945,-1.70011 0.59761404,0.59761404 0 0 0 -0.780085,0.38137 c -0.365341,1.17163 -1.288356,1.69474 -1.9372661,1.92342 a 5.4645828,5.4645828 0 0 0 -0.08556,-0.6506 0.59761718,0.59761718 0 0 0 -1.174112,0.22371 c 0.125698,0.65996 0.09502,1.16216 -0.08656,1.41435 -0.03376,0.0468 -0.136654,0.18925 -0.447015,0.23108 a 1.251603,1.251603 0 0 1 -1.104789,-0.45897 c -0.7018977,-0.81883 0.0996,-1.60828 0.264344,-1.75599 a 0.59691683,0.59691683 0 0 0 0.176894,-0.27052 c 0.549407,-1.74354 1.618837,-4.40909 2.277806,-4.87703 a 0.59761404,0.59761404 0 0 0 0.249006,-0.43536 11.610744,11.610744 0 0 0 0.0258,-1.68766 l 0.34552,0.20568 A 0.59761404,0.59761404 0 0 0 10.811484,5.74809 l -0.03217,-0.14591 a 1.2942328,1.2942328 0 0 1 0.296417,0.65558 0.59831126,0.59831126 0 0 0 0.70887,0.54711 c 0.04064,-0.008 3.573433,-0.6501 6.23919,1.13935 l -0.406577,0.0131 a 0.59761404,0.59761404 0 0 0 -0.224603,1.14284 c 0.03277,0.0147 2.826814,1.28676 4.283498,3.45381 l -0.783074,-0.22002 a 0.59761404,0.59761404 0 0 0 -0.460162,1.09294 c 0.02231,0.0129 2.241052,1.33218 2.557588,5.0074 a 3.5259229,3.5259229 0 0 0 2.919743,3.18459 22.145086,22.145086 0 0 0 3.071338,0.25488 c 3.568653,0.0829 4.957209,1.86934 5.448248,2.8319 a 0.60289297,0.60289297 0 0 0 0.05598,0.11434 2.9045039,2.9045039 0 0 1 0.183965,0.48367 0.59761404,0.59761404 0 1 0 1.16216,-0.27889 c -0.0013,-0.006 -0.0065,-0.0268 -0.01643,-0.0614 1.033175,-0.072 3.157394,0.18546 5.085596,2.96187 a 8.9824379,8.9824379 0 0 0 3.870148,3.18907 q 0.09193,0.0387 0.181576,0.0742 a 5.3276296,5.3276296 0 0 1 -2.53986,-0.0683 0.59761404,0.59761404 0 0 0 -0.539446,1.03735 c 0.139443,0.11504 2.701315,2.19972 5.683608,3.1564 -2.988369,0.62142 -5.186095,0.46624 -6.55244,-0.46614 z"
     id="path2"
     inkscape:connector-curvature="0"
     style="stroke-width:0.09960234" />
</svg>
