<?xml version="1.0" encoding="UTF-8" standalone="no"?>
<!-- Generator: Adobe Illustrator 19.0.0, SVG Export Plug-In . SVG Version: 6.00 Build 0)  -->

<svg
   xmlns:dc="http://purl.org/dc/elements/1.1/"
   xmlns:cc="http://creativecommons.org/ns#"
   xmlns:rdf="http://www.w3.org/1999/02/22-rdf-syntax-ns#"
   xmlns:svg="http://www.w3.org/2000/svg"
   xmlns="http://www.w3.org/2000/svg"
   xmlns:sodipodi="http://sodipodi.sourceforge.net/DTD/sodipodi-0.dtd"
   xmlns:inkscape="http://www.inkscape.org/namespaces/inkscape"
   version="1.1"
   id="Capa_1"
   x="0px"
   y="0px"
   viewBox="0 0 52 52"
   xml:space="preserve"
   sodipodi:docname="paw.svg"
   width="52"
   height="52"
   inkscape:version="0.92.4 (5da689c313, 2019-01-14)"><metadata
   id="metadata67"><rdf:RDF><cc:Work
       rdf:about=""><dc:format>image/svg+xml</dc:format><dc:type
         rdf:resource="http://purl.org/dc/dcmitype/StillImage" /><dc:title></dc:title></cc:Work></rdf:RDF></metadata><defs
   id="defs65" /><sodipodi:namedview
   pagecolor="#ffffff"
   bordercolor="#666666"
   borderopacity="1"
   objecttolerance="10"
   gridtolerance="10"
   guidetolerance="10"
   inkscape:pageopacity="0"
   inkscape:pageshadow="2"
   inkscape:window-width="1920"
   inkscape:window-height="1017"
   id="namedview63"
   showgrid="false"
   inkscape:zoom="3.6875"
   inkscape:cx="-30.98939"
   inkscape:cy="47.710676"
   inkscape:window-x="-8"
   inkscape:window-y="-8"
   inkscape:window-maximized="1"
   inkscape:current-layer="Capa_1" />



















<g
   id="g907"
   transform="matrix(0.09765636,0,0,0.09765636,0.99992748,1.0062953)"><g
     id="g6">
	<g
   id="g4">
		<path
   id="path2"
   d="M 378.608,290.994 C 344.16,249.402 300.618,226.496 256,226.496 c -44.618,0 -88.161,22.906 -122.607,64.498 -30.963,37.385 -49.448,84.501 -49.448,126.035 0,20.176 6.168,35.544 18.332,45.679 12.006,10.004 27.857,13.388 45.541,13.387 18.817,0 39.711,-3.832 60.24,-7.598 17.939,-3.291 34.883,-6.399 47.943,-6.399 11.272,0 27.165,2.95 43.988,6.073 39.317,7.3 83.881,15.572 109.624,-5.832 12.238,-10.175 18.443,-25.42 18.443,-45.31 0.001,-41.534 -18.484,-88.65 -49.448,-126.035 z"
   inkscape:connector-curvature="0" />
	</g>
</g><g
     id="g12">
	<g
   id="g10">
		<path
   id="path8"
   d="m 382.13,65.146 c -12.604,-18.583 -30.652,-29.24 -49.517,-29.24 -18.866,0 -36.913,10.658 -49.517,29.24 -11.578,17.071 -17.955,39.489 -17.955,63.125 0,23.636 6.376,46.054 17.955,63.125 12.604,18.582 30.652,29.24 49.517,29.24 18.866,0 36.913,-10.658 49.517,-29.24 11.578,-17.071 17.955,-39.489 17.955,-63.125 0,-23.636 -6.376,-46.055 -17.955,-63.125 z"
   inkscape:connector-curvature="0" />
	</g>
</g><g
     id="g18">
	<g
   id="g16">
		<path
   id="path14"
   d="m 228.905,65.145 c -12.604,-18.583 -30.651,-29.24 -49.517,-29.24 -18.866,0 -36.914,10.658 -49.517,29.24 -11.578,17.071 -17.955,39.489 -17.955,63.125 0,23.636 6.376,46.054 17.955,63.125 12.604,18.583 30.651,29.241 49.517,29.241 18.866,0 36.913,-10.658 49.517,-29.241 11.578,-17.071 17.955,-39.488 17.955,-63.125 -0.001,-23.636 -6.377,-46.055 -17.955,-63.125 z"
   inkscape:connector-curvature="0" />
	</g>
</g><g
     id="g24">
	<g
   id="g22">
		<path
   id="path20"
   d="m 509.019,210.133 c -5.081,-17.284 -15.972,-29.843 -30.665,-35.362 -11.824,-4.441 -25.171,-3.688 -37.583,2.121 -17.105,8.004 -31.086,24.532 -38.356,45.345 -5.941,17.008 -6.682,34.985 -2.085,50.622 5.081,17.284 15.972,29.843 30.666,35.362 5.085,1.91 10.45,2.859 15.902,2.859 7.227,0 14.607,-1.669 21.682,-4.98 17.105,-8.004 31.086,-24.532 38.356,-45.344 v -10e-4 c 5.94,-17.007 6.681,-34.985 2.083,-50.622 z"
   inkscape:connector-curvature="0" />
	</g>
</g><g
     id="g30">
	<g
   id="g28">
		<path
   id="path26"
   d="M 109.587,222.235 C 102.316,201.422 88.335,184.895 71.231,176.891 58.818,171.082 45.47,170.33 33.647,174.77 18.953,180.29 8.062,192.849 2.981,210.132 c -4.597,15.637 -3.856,33.615 2.085,50.622 v 10e-4 c 7.272,20.813 21.252,37.34 38.356,45.344 7.076,3.311 14.455,4.98 21.682,4.98 5.452,0 10.818,-0.95 15.902,-2.859 14.696,-5.52 25.586,-18.079 30.667,-35.362 4.595,-15.636 3.854,-33.614 -2.086,-50.623 z"
   inkscape:connector-curvature="0" />
	</g>
</g><g
     id="g32">
</g><g
     id="g34">
</g><g
     id="g36">
</g><g
     id="g38">
</g><g
     id="g40">
</g><g
     id="g42">
</g><g
     id="g44">
</g><g
     id="g46">
</g><g
     id="g48">
</g><g
     id="g50">
</g><g
     id="g52">
</g><g
     id="g54">
</g><g
     id="g56">
</g><g
     id="g58">
</g><g
     id="g60">
</g></g>
</svg>