<?xml version="1.0" encoding="UTF-8" standalone="no"?>
<!-- Generator: Adobe Illustrator 19.0.0, SVG Export Plug-In . SVG Version: 6.00 Build 0)  -->

<svg
   xmlns:dc="http://purl.org/dc/elements/1.1/"
   xmlns:cc="http://creativecommons.org/ns#"
   xmlns:rdf="http://www.w3.org/1999/02/22-rdf-syntax-ns#"
   xmlns:svg="http://www.w3.org/2000/svg"
   xmlns="http://www.w3.org/2000/svg"
   xmlns:sodipodi="http://sodipodi.sourceforge.net/DTD/sodipodi-0.dtd"
   xmlns:inkscape="http://www.inkscape.org/namespaces/inkscape"
   version="1.1"
   id="Capa_1"
   x="0px"
   y="0px"
   viewBox="0 0 52.000001 52.000001"
   xml:space="preserve"
   sodipodi:docname="snowman.svg"
   width="52"
   height="52"
   inkscape:version="0.92.4 (5da689c313, 2019-01-14)"><metadata
   id="metadata79"><rdf:RDF><cc:Work
       rdf:about=""><dc:format>image/svg+xml</dc:format><dc:type
         rdf:resource="http://purl.org/dc/dcmitype/StillImage" /><dc:title></dc:title></cc:Work></rdf:RDF></metadata><defs
   id="defs77" /><sodipodi:namedview
   pagecolor="#ffffff"
   bordercolor="#666666"
   borderopacity="1"
   objecttolerance="10"
   gridtolerance="10"
   guidetolerance="10"
   inkscape:pageopacity="0"
   inkscape:pageshadow="2"
   inkscape:window-width="1920"
   inkscape:window-height="1017"
   id="namedview75"
   showgrid="false"
   inkscape:zoom="7.0936112"
   inkscape:cx="-7.7592126"
   inkscape:cy="55.232117"
   inkscape:window-x="-8"
   inkscape:window-y="-8"
   inkscape:window-maximized="1"
   inkscape:current-layer="Capa_1" />





















<g
   id="g925"
   transform="matrix(0.13283741,0,0,0.13283741,1.0992295,0.9999961)"><g
     id="g6">
	<g
   id="g4">
		<path
   id="path2"
   d="m 155.181,50.4 c -13.6,0 -24.8,11.2 -24.8,24.8 0,3.6 2.8,6.4 6.4,6.4 3.6,0 6.4,-2.8 6.4,-6.4 0,-6.8 5.2,-12 12,-12 6.8,0 12,5.2 12,12 0,3.6 2.8,6.4 6.4,6.4 3.6,0 6.4,-2.8 6.4,-6.4 0,-13.6 -11.2,-24.8 -24.8,-24.8 z"
   inkscape:connector-curvature="0" />
	</g>
</g><g
     id="g12">
	<g
   id="g10">
		<path
   id="path8"
   d="m 223.581,50.4 c -13.6,0 -24.8,11.2 -24.8,24.8 0,3.6 2.8,6.4 6.4,6.4 3.6,0 6.4,-2.8 6.4,-6.4 0,-6.8 5.2,-12 12,-12 6.8,0 12,5.2 12,12 0,3.6 2.8,6.4 6.4,6.4 3.6,0 6.4,-2.8 6.4,-6.4 0,-13.6 -11.2,-24.8 -24.8,-24.8 z"
   inkscape:connector-curvature="0" />
	</g>
</g><g
     id="g18">
	<g
   id="g16">
		<path
   id="path14"
   d="m 211.181,124.4 c -3.2,-1.2 -6.8,0.4 -8,4 -1.6,4.8 -6.4,8 -11.2,8 -5.2,0 -9.6,-3.2 -11.2,-8 -1.2,-3.2 -4.8,-5.2 -8,-4 -3.2,1.2 -5.2,4.8 -4,8 3.6,10 12.8,16.8 23.6,16.8 10.4,0 20,-6.8 23.2,-16.4 0.8,-3.6 -0.8,-7.2 -4.4,-8.4 z"
   inkscape:connector-curvature="0" />
	</g>
</g><g
     id="g24">
	<g
   id="g22">
		<path
   id="path20"
   d="m 243.981,96.8 -46.8,-13.2 c -2.4,-1.2 -5.2,-2 -7.6,-2 -9.2,0 -16.8,7.6 -16.8,16.4 0,9.2 7.2,16.4 16.4,16.4 0.4,0 0.4,0 0.8,0 l 52.8,-5.2 c 3.2,-0.4 5.6,-2.8 5.6,-5.6 0.4,-3.2 -1.6,-6 -4.4,-6.8 z m -54.8,5.2 c -2,0 -3.6,-1.6 -3.6,-3.6 0,-2.4 1.6,-4 3.6,-4 0.8,0 1.2,0 2,0.4 0.4,0.4 1.2,0.4 1.6,0.8 l 15.2,4.4 z"
   inkscape:connector-curvature="0" />
	</g>
</g><g
     id="g30">
	<g
   id="g28">
		<circle
   id="circle26"
   r="13.2"
   cy="219.2"
   cx="191.981" />
	</g>
</g><g
     id="g36">
	<g
   id="g34">
		<circle
   id="circle32"
   r="13.2"
   cy="271.20001"
   cx="191.981" />
	</g>
</g><g
     id="g42">
	<g
   id="g40">
		<path
   id="path38"
   d="m 369.581,166 c -0.4,-3.6 -3.6,-6.4 -6.8,-6.4 l -42,2.4 39.2,-43.6 c 2.4,-2.8 2,-6.8 -0.4,-9.2 -2.8,-2.4 -6.8,-2 -9.2,0.4 l -28.4,31.6 -1.6,-24.8 c -0.4,-3.6 -3.2,-6 -6.8,-6 -3.6,0.4 -6,3.2 -6,6.8 l 2.8,37.2 -22,24.8 c -9.2,-12.4 -20.4,-22.8 -34,-31.2 14.4,-15.6 23.6,-36.8 23.6,-59.6 0,-48.8 -39.6,-88.4 -88.4,-88.4 -48.8,0 -88.8,39.2 -88.8,88 0,23.2 8.8,44 23.6,59.6 -14,8.4 -25.6,19.6 -34.8,32.4 l -23.2,-25.6 2.8,-37.2 c 0.4,-3.6 -2.4,-6.4 -6,-6.8 -3.6,-0.4 -6.4,2.4 -6.8,6 l -2,25.2 -28.4,-31.6 c -2.4,-2.8 -6.4,-2.8 -9.2,-0.4 -2.4,2.4 -2.8,6.4 -0.4,9.2 l 39.2,43.6 -42,-2.4 c -3.6,-0.4 -6.4,2.4 -6.8,6 0,3.6 2.4,6.4 6,6.8 l 54.8,2.8 14.4,15.6 c -10.8,18.4 -16.4,39.6 -16.4,61.6 0,68 55.6,123.6 123.6,123.6 68,0 123.6,-55.6 123.6,-123.6 0,-22.8 -6,-44.4 -17.2,-62.8 l 13.2,-14.4 54.8,-2.8 c 3.6,0 6.4,-3.2 6,-6.8 z m -256,-78 c 0,-42 34,-75.6 75.6,-75.6 41.6,0 75.6,34 75.6,75.6 0,41.6 -33.6,76 -75.6,76 -42,0 -75.6,-34 -75.6,-76 z m 186.4,164.8 c 0,61.2 -49.6,110.8 -110.8,110.8 -61.2,0 -110.8,-49.6 -110.8,-110.8 0,-18.4 4.4,-36 12.8,-51.6 l 3.6,4 c 1.2,1.2 2.8,2 4.8,2 1.6,0 3.2,-0.4 4.4,-1.6 2.8,-2.4 2.8,-6.4 0.4,-9.2 l -6.4,-6.8 c 9.2,-13.2 21.2,-24.4 35.6,-32.8 15.2,12.4 34.4,19.6 55.6,19.6 20.8,0 40.4,-7.2 55.6,-19.6 14,8 26,18.8 34.8,31.6 l -7.2,8 c -2.4,2.8 -2,6.8 0.4,9.2 1.2,1.2 2.8,1.6 4.4,1.6 1.6,0 3.6,-0.8 4.8,-2 l 4.8,-5.2 c 8.4,16 13.2,34 13.2,52.8 z"
   inkscape:connector-curvature="0" />
	</g>
</g><g
     id="g44">
</g><g
     id="g46">
</g><g
     id="g48">
</g><g
     id="g50">
</g><g
     id="g52">
</g><g
     id="g54">
</g><g
     id="g56">
</g><g
     id="g58">
</g><g
     id="g60">
</g><g
     id="g62">
</g><g
     id="g64">
</g><g
     id="g66">
</g><g
     id="g68">
</g><g
     id="g70">
</g><g
     id="g72">
</g></g>
</svg>