<?xml version="1.0" encoding="UTF-8" standalone="no"?>
<!-- Generator: Adobe Illustrator 19.0.0, SVG Export Plug-In . SVG Version: 6.00 Build 0)  -->

<svg
   xmlns:dc="http://purl.org/dc/elements/1.1/"
   xmlns:cc="http://creativecommons.org/ns#"
   xmlns:rdf="http://www.w3.org/1999/02/22-rdf-syntax-ns#"
   xmlns:svg="http://www.w3.org/2000/svg"
   xmlns="http://www.w3.org/2000/svg"
   xmlns:sodipodi="http://sodipodi.sourceforge.net/DTD/sodipodi-0.dtd"
   xmlns:inkscape="http://www.inkscape.org/namespaces/inkscape"
   version="1.1"
   id="Capa_1"
   x="0px"
   y="0px"
   viewBox="0 0 51.999999 51.999999"
   xml:space="preserve"
   sodipodi:docname="star.svg"
   width="52"
   height="52"
   inkscape:version="0.92.4 (5da689c313, 2019-01-14)"><metadata
   id="metadata43"><rdf:RDF><cc:Work
       rdf:about=""><dc:format>image/svg+xml</dc:format><dc:type
         rdf:resource="http://purl.org/dc/dcmitype/StillImage" /><dc:title></dc:title></cc:Work></rdf:RDF></metadata><defs
   id="defs41" /><sodipodi:namedview
   pagecolor="#ffffff"
   bordercolor="#666666"
   borderopacity="1"
   objecttolerance="10"
   gridtolerance="10"
   guidetolerance="10"
   inkscape:pageopacity="0"
   inkscape:pageshadow="2"
   inkscape:window-width="1920"
   inkscape:window-height="1017"
   id="namedview39"
   showgrid="false"
   inkscape:zoom="5.214892"
   inkscape:cx="-16.354803"
   inkscape:cy="20.641782"
   inkscape:window-x="-8"
   inkscape:window-y="-8"
   inkscape:window-maximized="1"
   inkscape:current-layer="Capa_1" />
<g
   id="g6"
   transform="matrix(0.09765583,0,0,0.09765583,0.99998711,1.1519679)">
	<g
   id="g4">
		<path
   d="m 511.267,197.258 c -1.764,-5.431 -6.457,-9.389 -12.107,-10.209 L 340.437,163.984 269.452,20.157 c -2.526,-5.12 -7.741,-8.361 -13.45,-8.361 -5.71,0 -10.924,3.241 -13.451,8.361 l -70.988,143.827 -158.72,23.065 c -5.649,0.82 -10.344,4.778 -12.108,10.208 -1.765,5.431 -0.293,11.392 3.796,15.377 L 119.379,324.588 92.271,482.671 c -0.966,5.628 1.348,11.314 5.967,14.671 2.613,1.898 5.708,2.864 8.818,2.864 2.388,0 4.784,-0.569 6.978,-1.723 l 141.967,-74.638 141.961,74.637 c 5.055,2.657 11.178,2.215 15.797,-1.141 4.619,-3.356 6.934,-9.044 5.969,-14.672 L 392.611,324.588 507.472,212.633 c 4.088,-3.984 5.561,-9.945 3.795,-15.375 z"
   id="path2"
   inkscape:connector-curvature="0" />
	</g>
</g>
<g
   id="g8"
   transform="translate(0,-460.00201)">
</g>
<g
   id="g10"
   transform="translate(0,-460.00201)">
</g>
<g
   id="g12"
   transform="translate(0,-460.00201)">
</g>
<g
   id="g14"
   transform="translate(0,-460.00201)">
</g>
<g
   id="g16"
   transform="translate(0,-460.00201)">
</g>
<g
   id="g18"
   transform="translate(0,-460.00201)">
</g>
<g
   id="g20"
   transform="translate(0,-460.00201)">
</g>
<g
   id="g22"
   transform="translate(0,-460.00201)">
</g>
<g
   id="g24"
   transform="translate(0,-460.00201)">
</g>
<g
   id="g26"
   transform="translate(0,-460.00201)">
</g>
<g
   id="g28"
   transform="translate(0,-460.00201)">
</g>
<g
   id="g30"
   transform="translate(0,-460.00201)">
</g>
<g
   id="g32"
   transform="translate(0,-460.00201)">
</g>
<g
   id="g34"
   transform="translate(0,-460.00201)">
</g>
<g
   id="g36"
   transform="translate(0,-460.00201)">
</g>
</svg>