<?xml version="1.0" encoding="UTF-8" standalone="no"?>
<!-- Generator: Adobe Illustrator 19.0.0, SVG Export Plug-In . SVG Version: 6.00 Build 0)  -->

<svg
   xmlns:dc="http://purl.org/dc/elements/1.1/"
   xmlns:cc="http://creativecommons.org/ns#"
   xmlns:rdf="http://www.w3.org/1999/02/22-rdf-syntax-ns#"
   xmlns:svg="http://www.w3.org/2000/svg"
   xmlns="http://www.w3.org/2000/svg"
   xmlns:sodipodi="http://sodipodi.sourceforge.net/DTD/sodipodi-0.dtd"
   xmlns:inkscape="http://www.inkscape.org/namespaces/inkscape"
   version="1.1"
   id="Capa_1"
   x="0px"
   y="0px"
   viewBox="0 0 52 52"
   xml:space="preserve"
   sodipodi:docname="teddy-bear.svg"
   width="52"
   height="52"
   inkscape:version="0.92.4 (5da689c313, 2019-01-14)"><metadata
   id="metadata67"><rdf:RDF><cc:Work
       rdf:about=""><dc:format>image/svg+xml</dc:format><dc:type
         rdf:resource="http://purl.org/dc/dcmitype/StillImage" /><dc:title></dc:title></cc:Work></rdf:RDF></metadata><defs
   id="defs65" /><sodipodi:namedview
   pagecolor="#ffffff"
   bordercolor="#666666"
   borderopacity="1"
   objecttolerance="10"
   gridtolerance="10"
   guidetolerance="10"
   inkscape:pageopacity="0"
   inkscape:pageshadow="2"
   inkscape:window-width="1920"
   inkscape:window-height="1017"
   id="namedview63"
   showgrid="false"
   inkscape:zoom="5.2149125"
   inkscape:cx="5.9921397"
   inkscape:cy="36.845149"
   inkscape:window-x="-8"
   inkscape:window-y="-8"
   inkscape:window-maximized="1"
   inkscape:current-layer="Capa_1" />



















<g
   id="g907"
   transform="matrix(0.09765625,0,0,0.09765625,1.0086908,1)"><g
     id="g6">
	<g
   id="g4">
		<path
   id="path2"
   d="m 454.773,375.483 c -8.143,-14.111 -20.159,-23.29 -35.714,-27.279 -3.716,-0.953 -7.461,-1.551 -11.177,-1.788 0.48,-5.345 0.73,-10.73 0.73,-16.106 0,-6.824 -0.391,-13.656 -1.166,-20.423 27.647,-3.783 48.974,-26.763 48.974,-54.46 0,-30.329 -25.581,-55.005 -57.024,-55.005 -3.084,0 -6.128,0.248 -9.117,0.709 6.464,-15.569 10.023,-32.542 10.023,-50.298 0,-11.544 -1.495,-22.936 -4.454,-33.993 22.685,-9.582 37.781,-31.292 37.781,-55.848 C 433.63,27.361 405.243,0 370.351,0 349.08,0 329.394,10.358 317.768,27.05 299.244,18.862 278.901,14.569 258.375,14.569 c -20.526,0 -40.869,4.293 -59.393,12.481 C 187.354,10.358 167.667,0 146.396,0 111.503,0 83.115,27.362 83.115,60.994 c 0,24.557 15.098,46.267 37.783,55.849 -2.959,11.06 -4.455,22.453 -4.455,33.992 0,17.756 3.56,34.728 10.023,50.298 -2.989,-0.461 -6.032,-0.709 -9.116,-0.709 -31.444,0 -57.025,24.675 -57.025,55.005 0,27.695 21.33,50.674 48.974,54.46 -0.775,6.771 -1.167,13.605 -1.167,20.423 0,5.524 0.265,11.055 0.772,16.546 -0.386,-0.008 -0.771,-0.02 -1.159,-0.02 -4.894,0 -9.874,0.641 -14.804,1.904 -15.555,3.989 -27.57,13.166 -35.714,27.278 -14.095,24.426 -13.358,60.525 -6.376,85.467 C 59.18,491.229 87.31,512 119.262,512 c 1.339,0 2.68,-0.044 4.018,-0.118 0.058,-0.001 0.115,-0.001 0.173,-0.004 0.088,-0.004 0.176,-0.012 0.264,-0.017 0.104,-0.006 0.207,-0.013 0.31,-0.02 26.193,-1.425 49.252,-16.886 60.158,-39.198 22.542,13.977 47.94,21.305 74.186,21.305 25.056,0 49.464,-6.747 71.286,-19.581 0.352,0.658 0.698,1.319 1.073,1.969 9.434,16.347 24.962,28 43.722,32.811 5.986,1.535 12.138,2.315 18.283,2.315 31.952,0 60.082,-20.772 68.408,-50.513 6.988,-24.941 7.724,-61.041 -6.37,-85.466 z M 103.121,60.994 c 0,-22.601 19.413,-40.989 43.275,-40.989 17.07,0 32.595,9.549 39.551,24.328 1.162,2.469 3.283,4.355 5.869,5.223 2.587,0.867 5.415,0.64 7.832,-0.628 17.879,-9.391 38.186,-14.354 58.724,-14.354 20.539,0 40.845,4.963 58.724,14.354 2.416,1.269 5.246,1.496 7.832,0.628 2.587,-0.868 4.707,-2.755 5.869,-5.223 6.957,-14.779 22.481,-24.328 39.552,-24.328 23.862,0 43.275,18.387 43.275,40.989 0,15.991 -9.727,30.21 -24.466,36.928 -2.376,-5.411 -5.11,-10.68 -8.184,-15.741 -2.869,-4.721 -9.019,-6.222 -13.741,-3.356 -4.721,2.868 -6.224,9.02 -3.356,13.741 4.079,6.715 7.464,13.851 10.06,21.212 0.063,0.18 0.137,0.352 0.209,0.526 4.075,11.745 6.15,24.03 6.15,36.531 0,60.894 -49.354,110.999 -111.923,115.868 v -74.374 c 14.48,-4.959 24.708,-20.001 24.708,-33.281 0,-7.282 -3.382,-24.22 -34.71,-24.22 -31.328,0 -34.71,16.938 -34.71,24.22 0,13.28 10.227,28.322 24.708,33.281 v 74.374 C 185.801,261.835 136.446,211.73 136.446,150.835 c 0,-12.684 2.129,-25.156 6.329,-37.07 0.941,-2.67 0.707,-5.612 -0.645,-8.1 -1.351,-2.488 -3.693,-4.285 -6.445,-4.949 -19.173,-4.622 -32.564,-20.957 -32.564,-39.722 z m 155.253,283.084 c -5.524,0 -10.002,4.478 -10.002,10.002 v 30.317 c -33.885,-4.87 -60.014,-34.08 -60.014,-69.291 0,-14.252 4.37,-28.112 12.399,-39.752 17.617,7.544 37.115,11.746 57.617,11.746 20.502,0 40,-4.202 57.618,-11.746 8.029,11.641 12.4,25.5 12.4,39.752 0,35.21 -26.13,64.421 -60.014,69.291 V 354.08 c -0.002,-5.524 -4.48,-10.002 -10.004,-10.002 z m -14.705,-185.03 c 0,-0.975 0,-1.379 1.653,-2.193 1.533,-0.755 5.268,-2.021 13.052,-2.021 7.784,0 11.519,1.267 13.052,2.021 1.653,0.814 1.653,1.218 1.653,2.193 0,5.638 -6.874,14.967 -14.706,14.967 -7.832,-10e-4 -14.704,-9.329 -14.704,-14.967 z m -79.726,307.828 c -6.722,11.647 -17.861,19.969 -31.365,23.432 -3.269,0.838 -6.602,1.366 -9.946,1.579 -0.009,0 -0.018,10e-4 -0.026,0.002 -1.113,0.07 -2.227,0.105 -3.34,0.105 -23.018,10e-4 -43.227,-14.763 -49.147,-35.902 -5.664,-20.231 -6.691,-50.788 4.438,-70.075 5.428,-9.405 13.067,-15.261 23.356,-17.899 3.307,-0.848 6.616,-1.278 9.834,-1.278 3.383,0 6.666,0.469 9.839,1.335 0.15,0.046 0.299,0.092 0.452,0.131 25.767,7.364 44.264,40.925 50.447,63.013 3.365,12.022 1.752,24.65 -4.542,35.557 z m 160.31,-41.488 c -2.751,9.826 -3.179,19.927 -1.379,29.687 -19.594,12.352 -41.751,18.868 -64.499,18.868 -24.465,0 -48.109,-7.464 -68.722,-21.628 1.15,-8.725 0.54,-17.665 -1.902,-26.388 -7.281,-26.007 -27.781,-62.385 -58.238,-74.765 -0.908,-6.882 -1.372,-13.87 -1.372,-20.852 0,-9.466 0.848,-18.962 2.522,-28.223 0.549,-3.039 -0.335,-6.159 -2.397,-8.458 -2.062,-2.299 -5.071,-3.518 -8.148,-3.299 -0.917,0.065 -1.846,0.097 -2.763,0.097 -20.413,0 -37.02,-15.702 -37.02,-35.001 0,-19.299 16.607,-35 37.02,-35 9.765,0 18.946,3.56 25.908,10.02 10.676,14.189 24.123,26.333 39.574,35.698 -9.401,14.508 -14.482,31.512 -14.482,48.962 0,49.638 40.384,90.021 90.021,90.021 49.637,0 90.021,-40.384 90.021,-90.021 0,-17.45 -5.081,-34.453 -14.482,-48.962 15.452,-9.364 28.899,-21.508 39.574,-35.698 6.963,-6.462 16.144,-10.02 25.909,-10.02 20.412,0 37.019,15.701 37.019,35 0,19.299 -16.607,35.001 -37.019,35.001 -0.916,0 -1.847,-0.033 -2.766,-0.097 -3.078,-0.219 -6.087,1 -8.149,3.299 -2.06,2.299 -2.946,5.42 -2.397,8.459 1.673,9.25 2.522,18.745 2.522,28.221 0,6.194 -0.364,12.398 -1.078,18.517 -33.235,10.203 -55.6,49.147 -63.277,76.562 z m 117.63,30.168 c -5.917,21.139 -26.126,35.903 -49.144,35.903 -4.47,0 -8.949,-0.567 -13.314,-1.687 -13.505,-3.463 -24.645,-11.785 -31.365,-23.432 -6.294,-10.908 -7.908,-23.536 -4.543,-35.555 6.512,-23.257 26.673,-59.232 54.598,-63.955 0.109,-0.018 0.218,-0.037 0.326,-0.058 1.903,-0.305 3.842,-0.465 5.815,-0.465 3.219,0 6.528,0.43 9.834,1.278 10.288,2.639 17.928,8.493 23.357,17.899 11.128,19.283 10.101,49.841 4.436,70.072 z"
   inkscape:connector-curvature="0" />
	</g>
</g><g
     id="g12">
	<g
   id="g10">
		<path
   id="path8"
   d="m 321.264,113.305 c -9.231,0 -16.762,7.207 -16.762,16.042 0,8.836 7.53,16.043 16.762,16.043 9.232,0 16.761,-7.207 16.761,-16.043 0,-8.835 -7.529,-16.042 -16.761,-16.042 z"
   inkscape:connector-curvature="0" />
	</g>
</g><g
     id="g18">
	<g
   id="g16">
		<path
   id="path14"
   d="m 195.485,113.305 c -9.232,0 -16.762,7.207 -16.762,16.042 0,8.836 7.529,16.043 16.762,16.043 9.231,0 16.761,-7.207 16.761,-16.043 0,-8.835 -7.53,-16.042 -16.761,-16.042 z"
   inkscape:connector-curvature="0" />
	</g>
</g><g
     id="g24">
	<g
   id="g22">
		<path
   id="path20"
   d="m 360.875,56.578 -0.233,-0.231 c -3.967,-3.844 -10.314,-3.761 -14.159,0.206 -3.845,3.966 -3.762,10.283 0.205,14.128 0.007,0.006 0.054,0.054 0.062,0.061 1.947,1.948 4.494,2.92 7.043,2.92 2.557,0 5.115,-0.978 7.072,-2.929 3.906,-3.896 3.9,-10.241 0.01,-14.155 z"
   inkscape:connector-curvature="0" />
	</g>
</g><g
     id="g30">
	<g
   id="g28">
		<path
   id="path26"
   d="m 258.371,315.105 c -5.524,0 -10.002,4.478 -10.002,10.002 v 0.236 c 0,5.524 4.478,10.002 10.002,10.002 5.524,0 10.002,-4.478 10.002,-10.002 v -0.236 c 0,-5.524 -4.478,-10.002 -10.002,-10.002 z"
   inkscape:connector-curvature="0" />
	</g>
</g><g
     id="g32">
</g><g
     id="g34">
</g><g
     id="g36">
</g><g
     id="g38">
</g><g
     id="g40">
</g><g
     id="g42">
</g><g
     id="g44">
</g><g
     id="g46">
</g><g
     id="g48">
</g><g
     id="g50">
</g><g
     id="g52">
</g><g
     id="g54">
</g><g
     id="g56">
</g><g
     id="g58">
</g><g
     id="g60">
</g></g>
</svg>