<?xml version="1.0" encoding="UTF-8" standalone="no"?>
<svg
   xmlns:dc="http://purl.org/dc/elements/1.1/"
   xmlns:cc="http://creativecommons.org/ns#"
   xmlns:rdf="http://www.w3.org/1999/02/22-rdf-syntax-ns#"
   xmlns:svg="http://www.w3.org/2000/svg"
   xmlns="http://www.w3.org/2000/svg"
   xmlns:sodipodi="http://sodipodi.sourceforge.net/DTD/sodipodi-0.dtd"
   xmlns:inkscape="http://www.inkscape.org/namespaces/inkscape"
   id="dino3"
   enable-background="new 0 0 300 300"
   height="52"
   viewBox="0 0 30.46875 30.468749"
   width="52"
   version="1.1"
   sodipodi:docname="tyrannosaurus-rex.svg"
   inkscape:version="0.92.4 (5da689c313, 2019-01-14)">
  <metadata
     id="metadata11">
    <rdf:RDF>
      <cc:Work
         rdf:about="">
        <dc:format>image/svg+xml</dc:format>
        <dc:type
           rdf:resource="http://purl.org/dc/dcmitype/StillImage" />
        <dc:title></dc:title>
      </cc:Work>
    </rdf:RDF>
  </metadata>
  <defs
     id="defs9" />
  <sodipodi:namedview
     pagecolor="#ffffff"
     bordercolor="#666666"
     borderopacity="1"
     objecttolerance="10"
     gridtolerance="10"
     guidetolerance="10"
     inkscape:pageopacity="0"
     inkscape:pageshadow="2"
     inkscape:window-width="1920"
     inkscape:window-height="1017"
     id="namedview7"
     showgrid="false"
     inkscape:zoom="3.6875"
     inkscape:cx="-43.661017"
     inkscape:cy="17.355932"
     inkscape:window-x="-8"
     inkscape:window-y="-8"
     inkscape:window-maximized="1"
     inkscape:current-layer="dino3" />
  <g
     id="g4523"
     transform="matrix(0.11651472,0,0,0.11651472,-2.2428357,-2.2798417)">
    <path
       id="path2"
       d="m 275.535,120.617 c -0.289,-1.445 -1.352,-2.615 -2.762,-3.043 -1.42,-0.428 -2.947,-0.045 -3.988,1 -16.891,16.885 -35.916,12.729 -48.898,6.271 -10.293,-5.121 -20.662,-8.232 -30.816,-9.248 l -23.283,-2.328 c -10.748,-1.074 -21.324,-4.58 -30.584,-10.135 l -1.279,-0.768 C 125.634,97.391 118.579,90.878 112.956,83.007 106.88,74.501 97.852,68.894 87.534,67.218 77.21,65.542 66.874,68.007 58.419,74.157 L 31.617,93.652 c -7.059,5.131 -9.35,14.523 -5.447,22.33 l 1.775,3.551 c 3.297,6.594 10.932,9.623 17.729,7.365 l 0.057,0.166 c 1.486,4.459 4.795,8.119 9.082,10.043 4.285,1.928 9.219,1.969 13.543,0.117 l 24.225,-10.381 4.336,14.451 h -9.604 c -8.592,0 -15.58,6.988 -15.58,15.58 v 6.42 c 0,5.514 4.486,10 10,10 5.514,0 10,-4.486 10,-10 0,-1.104 0.896,-2 2,-2 h 13.273 c 5.745,7.213 13.203,12.814 21.585,16.324 -1.093,15.975 7.259,24.872 10.908,27.956 0.193,0.164 0.234,0.379 0.234,0.531 0,0.322 -0.215,0.611 -0.525,0.701 l -10.625,3.125 c -5.211,1.533 -8.85,6.398 -8.85,11.83 v 3.533 c 0,2.209 1.791,4 4,4 h 8 c 0,2.209 1.791,4 4,4 h 38.711 c 7.328,0 13.289,-5.961 13.289,-13.289 v -8.535 c 4.322,-3.917 16.646,-16.399 21.719,-34.852 6.989,-1.625 13.8,-3.895 20.25,-6.792 50.503,-22.692 46.048,-48.137 45.833,-49.209 z M 127.758,221.294 c 0.189,-1.715 1.402,-3.193 3.082,-3.688 l 10.623,-3.125 c 3.691,-1.084 6.27,-4.529 6.27,-8.377 0,-2.572 -1.119,-4.992 -3.07,-6.641 -2.56,-2.165 -8.156,-8.276 -8.098,-19.28 1.602,0.396 3.22,0.72 4.86,0.969 1.03,9.62 4.924,19.992 14.107,29.797 0.191,0.203 0.305,0.451 0.305,0.666 0,0.455 -0.309,0.846 -0.746,0.953 l -12.648,3.086 c -3.43,0.838 -6.263,2.906 -8.165,5.639 h -6.52 z m 98.666,-58.765 c -4.877,2.189 -9.981,3.992 -15.215,5.405 0.696,-5.525 0.689,-11.462 -0.363,-17.776 -0.363,-2.176 -2.408,-3.658 -4.604,-3.287 -2.178,0.363 -3.65,2.424 -3.287,4.604 5.416,32.496 -21.473,54.846 -21.746,55.068 -0.932,0.76 -1.477,1.902 -1.477,3.104 v 10.359 c 0,2.916 -2.373,5.289 -5.289,5.289 h -33.201 c 0.795,-0.898 1.861,-1.564 3.098,-1.865 l 12.646,-3.088 c 4.033,-0.984 6.85,-4.572 6.85,-8.725 0,-2.262 -0.879,-4.443 -2.469,-6.139 -8.529,-9.106 -11.758,-18.718 -12.296,-27.458 0.001,-0.011 0.008,-0.02 0.009,-0.031 0.004,-0.046 -0.017,-0.087 -0.015,-0.133 -0.955,-16.512 7.663,-29.868 8.22,-30.711 1.217,-1.84 0.717,-4.322 -1.121,-5.543 -1.838,-1.217 -4.316,-0.723 -5.539,1.111 -0.146,0.218 -8.642,13.268 -9.44,30.337 -8.717,-1.605 -16.789,-5.728 -23.259,-11.757 h 0.729 c 2.209,0 4,-1.791 4,-4 0,-2.209 -1.791,-4 -4,-4 H 93.732 c -5.514,0 -10,4.486 -10,10 0,1.104 -0.896,2 -2,2 -1.104,0 -2,-0.896 -2,-2 v -6.42 c 0,-4.18 3.4,-7.58 7.58,-7.58 h 19.576 c 2.209,0 4,-1.791 4,-4 0,-2.209 -1.791,-4 -4,-4 h -1.601 c -0.057,-0.182 -0.125,-0.356 -0.18,-0.539 L 98.955,120.25 c -0.328,-1.09 -1.105,-1.99 -2.139,-2.473 -1.033,-0.486 -2.221,-0.504 -3.27,-0.053 L 65.202,129.87 c -2.299,0.984 -4.826,0.963 -7.113,-0.062 -2.285,-1.025 -3.979,-2.898 -4.77,-5.275 l -0.369,-1.107 32.195,-16.098 c 1.977,-0.988 2.777,-3.391 1.789,-5.367 -0.988,-1.975 -3.385,-2.777 -5.367,-1.789 l -35.299,17.65 c -10e-4,10e-4 -0.002,0.002 -0.003,0.003 l -2.221,1.109 c -1.594,0.797 -3.396,0.924 -5.09,0.363 -1.689,-0.564 -3.057,-1.75 -3.854,-3.344 l -1.775,-3.551 c -2.146,-4.293 -0.887,-9.459 2.996,-12.283 L 63.124,80.625 c 6.717,-4.885 14.936,-6.84 23.125,-5.512 8.197,1.332 15.369,5.785 20.195,12.543 6.264,8.77 14.125,16.025 23.361,21.568 l 1.279,0.768 c 10.266,6.158 21.99,10.045 33.904,11.236 l 23.283,2.328 c 9.189,0.918 18.625,3.762 28.051,8.451 10.838,5.387 30.379,11.559 49.23,-0.553 -3.683,7.817 -13.464,19.542 -39.128,31.075 z"
       inkscape:connector-curvature="0" />
    <path
       id="path4"
       d="m 65.708,93.99 c -2.142,0 -3.879,1.737 -3.879,3.879 0,2.142 1.737,3.879 3.879,3.879 2.142,0 3.879,-1.737 3.879,-3.879 0,-2.142 -1.737,-3.879 -3.879,-3.879 z"
       inkscape:connector-curvature="0" />
  </g>
</svg>
