<?xml version="1.0" encoding="UTF-8" standalone="no"?>
<!DOCTYPE svg PUBLIC "-//W3C//DTD SVG 1.1//EN" "http://www.w3.org/Graphics/SVG/1.1/DTD/svg11.dtd">
<svg width="100%" height="100%" viewBox="0 0 14 13" version="1.1" xmlns="http://www.w3.org/2000/svg" xmlns:xlink="http://www.w3.org/1999/xlink" xml:space="preserve" xmlns:serif="http://www.serif.com/" style="fill-rule:evenodd;clip-rule:evenodd;stroke-linejoin:round;stroke-miterlimit:2;">
    <g transform="matrix(1,0,0,1,-2.24813,0)">
        <path d="M12.42,6.705L5.715,0L4.658,1.057L6.443,2.843L2.58,6.705C2.138,7.147 2.138,7.86 2.58,8.295L6.705,12.42C6.923,12.638 7.215,12.75 7.5,12.75C7.785,12.75 8.078,12.638 8.295,12.42L12.42,8.295C12.862,7.86 12.862,7.147 12.42,6.705ZM3.907,7.5L7.5,3.907L11.093,7.5L3.907,7.5ZM14.25,8.625C14.25,8.625 12.75,10.253 12.75,11.25C12.75,12.075 13.425,12.75 14.25,12.75C15.075,12.75 15.75,12.075 15.75,11.25C15.75,10.253 14.25,8.625 14.25,8.625Z" style="fill-rule:nonzero;"/>
    </g>
</svg>
